<svg width="1591" height="195" viewBox="0 0 1591 195" fill="none" xmlns="http://www.w3.org/2000/svg">
<path fill-rule="evenodd" clip-rule="evenodd" d="M4.12738 195L30.956 60.5532H0L11.6137 3H115L76.6867 195H4.12738ZM38.0802 54.6995L11.2516 189.146H71.8987L107.876 8.85366H16.3912L7.1399 54.6995H38.0802Z" fill="#F2F2F2"/>
<path fill-rule="evenodd" clip-rule="evenodd" d="M621 195L630.229 148.762L706.826 89.8255C712.164 85.6458 716.076 82.1848 718.683 79.4188L718.74 79.3584L718.799 79.2996C721.568 76.5254 723.172 74.2116 723.974 72.3752C724.875 70.3113 725.276 68.3709 725.276 66.5132C725.276 64.3644 724.556 62.9085 722.918 61.6321L722.854 61.5823L722.792 61.5307C721.225 60.238 718.752 59.2729 714.728 59.2729C710.636 59.2729 706.574 60.4466 702.456 63.0074L702.408 63.0376C698.425 65.4603 694.629 69.0534 691.075 74.0075L687.913 78.4149L638.382 47.752L641.202 42.8595C648.79 29.6923 659.95 19.3126 674.445 11.685C689.173 3.85356 705.713 0 723.929 0C737.859 0 750.491 2.32647 761.716 7.11756C773.028 11.8731 782.156 18.4884 788.831 27.0876L784.246 30.6608C778.282 22.9781 770.019 16.9174 759.455 12.4785C749.061 8.03963 737.219 5.8202 723.929 5.8202C706.549 5.8202 690.959 9.4908 677.157 16.832C665.423 23.0047 656.151 31.0119 649.341 40.8535C649.037 41.293 648.738 41.7361 648.444 42.1829C647.673 43.3535 646.935 44.5492 646.232 45.7701L686.358 70.6107C690.277 65.1474 694.622 60.9647 699.393 58.0623C704.334 54.9893 709.446 53.4527 714.728 53.4527C719.669 53.4527 723.588 54.6478 726.484 57.038C729.551 59.4281 731.085 62.5866 731.085 66.5132C731.085 69.2449 730.489 71.9765 729.296 74.7081C728.103 77.4397 725.973 80.342 722.906 83.4151C720.01 86.4882 715.835 90.1588 710.383 94.4269L635.497 152.047L628.085 189.18H771.467L780.923 142.316H722.906L750.509 121.316C761.244 113.121 769.678 105.609 775.812 98.7804C782.116 91.7807 786.546 84.9516 789.102 78.2933C791.828 71.4643 793.191 64.3792 793.191 57.038C793.191 47.1359 790.21 38.3435 784.246 30.6608L788.831 27.0876C795.602 35.8109 799 45.866 799 57.038C799 65.1083 797.5 72.9151 794.509 80.4195C791.629 87.9064 786.752 95.3201 780.128 102.675C773.668 109.867 764.93 117.624 754.029 125.946L754.022 125.952L740.163 136.495H788.024L776.219 195H621Z" fill="#F2F2F2"/>
<path fill-rule="evenodd" clip-rule="evenodd" d="M1335.1 190.207L1335.08 190.202C1322.56 186.978 1311.15 182.032 1300.89 175.341L1296 172.151L1330.14 120.495L1335.06 123.572C1341.63 127.689 1348.69 130.778 1356.23 132.845C1364.11 134.784 1371.47 135.727 1378.34 135.727C1383.67 135.727 1387.78 135.162 1390.82 134.208L1390.89 134.186C1394.21 133.189 1396 131.954 1396.92 130.873L1396.95 130.845C1398.08 129.544 1398.64 128.083 1398.64 126.182C1398.64 124.496 1398.14 123.841 1397.14 123.26L1397.03 123.197L1396.92 123.13C1395.43 122.173 1392.24 121.246 1386.38 121.246H1354.02L1363.35 75.1941L1370.48 69.117L1369.21 68.3757H1371.35L1384.43 57.2242H1328.84L1340.57 0H1488L1478.67 46.0523L1443.03 76.4428C1451.48 80.6074 1458.31 86.2314 1463.32 93.3863C1469.28 101.638 1472.18 111.289 1472.18 122.085C1472.18 136.211 1467.66 148.992 1458.73 160.241C1450.06 171.222 1438.2 179.713 1423.43 185.835C1408.76 191.987 1392.31 195 1374.19 195C1360.74 195 1347.7 193.406 1335.1 190.207ZM1421.14 180.473C1435.15 174.668 1446.13 166.729 1454.09 156.657C1462.22 146.413 1466.28 134.889 1466.28 122.085C1466.28 112.353 1463.69 103.902 1458.5 96.7317C1453.7 89.8689 1446.92 84.4918 1438.16 80.6004C1437.76 80.4259 1437.37 80.2544 1436.97 80.086C1435.35 79.3941 1433.68 78.7632 1431.96 78.1932L1473.28 42.9531L1480.81 5.8202H1345.39L1336.05 51.404H1400.27L1368.74 78.2933L1361.21 115.426H1386.38C1392.6 115.426 1397.19 116.365 1400.13 118.243C1403.07 119.95 1404.54 122.597 1404.54 126.182C1404.54 129.426 1403.5 132.243 1401.42 134.633C1399.52 136.852 1396.58 138.56 1392.6 139.755C1388.8 140.95 1384.04 141.547 1378.34 141.547C1370.9 141.547 1363.03 140.523 1354.73 138.474C1346.6 136.255 1338.99 132.926 1331.9 128.487L1304.14 170.485C1304.47 170.698 1304.8 170.91 1305.13 171.119C1306.45 171.96 1307.79 172.771 1309.15 173.552C1317.52 178.345 1326.65 182.017 1336.57 184.57C1348.68 187.643 1361.21 189.18 1374.19 189.18C1391.65 189.18 1407.3 186.277 1421.14 180.473Z" fill="#F2F2F2"/>
<path d="M535.119 122.999L543.799 79.5994H555.703L567.297 107.933H560.973L583.293 79.5994H595.755L587.199 122.999H573.869L578.395 99.6874L580.503 99.5634L565.499 119.093H559.051L550.619 99.5014L553.099 99.6874L548.449 122.999H535.119Z" fill="#F28627"/>
<path d="M589.561 122.999L617.213 79.5994H631.597L641.889 122.999H627.319L620.313 86.3574H626.017L604.999 122.999H589.561ZM602.333 115.435L608.161 104.895H628.125L629.737 115.435H602.333Z" fill="#F28627"/>
<path d="M651.469 122.999L657.855 90.9454H645.145L647.439 79.5994H687.491L685.197 90.9454H672.487L666.101 122.999H651.469Z" fill="#F28627"/>
<path d="M706.682 123.991C702.218 123.991 698.312 123.185 694.964 121.573C691.616 119.92 689.012 117.647 687.152 114.753C685.333 111.819 684.424 108.429 684.424 104.585C684.424 100.783 685.085 97.2901 686.408 94.1074C687.772 90.9248 689.673 88.1761 692.112 85.8614C694.551 83.5468 697.444 81.7694 700.792 80.5294C704.14 79.2481 707.819 78.6074 711.828 78.6074C716.003 78.6074 719.702 79.3514 722.926 80.8394C726.15 82.3274 728.547 84.4768 730.118 87.2874L719.578 95.5334C718.669 93.9214 717.491 92.6814 716.044 91.8134C714.597 90.9041 712.882 90.4494 710.898 90.4494C709.162 90.4494 707.571 90.7801 706.124 91.4414C704.719 92.0614 703.499 92.9708 702.466 94.1694C701.433 95.3268 700.627 96.7114 700.048 98.3234C699.469 99.9354 699.18 101.713 699.18 103.655C699.18 105.35 699.552 106.838 700.296 108.119C701.04 109.401 702.073 110.393 703.396 111.095C704.76 111.798 706.331 112.149 708.108 112.149C709.803 112.149 711.456 111.757 713.068 110.971C714.721 110.186 716.292 108.905 717.78 107.127L726.398 115.373C723.753 118.597 720.797 120.85 717.532 122.131C714.308 123.371 710.691 123.991 706.682 123.991Z" fill="#F28627"/>
<path d="M764.971 79.5994H779.603L770.923 122.999H756.291L764.971 79.5994ZM742.775 122.999H728.143L736.823 79.5994H751.455L742.775 122.999ZM760.445 107.003H745.007L747.425 94.9754H762.863L760.445 107.003Z" fill="#F28627"/>
<path d="M777.973 122.999L786.653 79.5994H801.285L792.605 122.999H777.973Z" fill="#F28627"/>
<path d="M799.648 122.999L808.328 79.5994H820.356L836.662 106.011H831.578L836.848 79.5994H851.108L842.428 122.999H830.4L814.094 96.5874H819.178L813.908 122.999H799.648Z" fill="#F28627"/>
<path d="M874.155 123.991C869.691 123.991 865.785 123.185 862.437 121.573C859.089 119.92 856.485 117.647 854.625 114.753C852.806 111.819 851.897 108.429 851.897 104.585C851.897 100.783 852.558 97.2901 853.881 94.1074C855.245 90.9248 857.167 88.1761 859.647 85.8614C862.127 83.5468 865.061 81.7694 868.451 80.5294C871.881 79.2481 875.663 78.6074 879.797 78.6074C884.343 78.6074 888.249 79.3308 891.515 80.7774C894.821 82.1828 897.487 84.2908 899.513 87.1014L889.035 95.2234C887.629 93.4048 886.141 92.1648 884.571 91.5034C883 90.8008 881.181 90.4494 879.115 90.4494C877.213 90.4494 875.498 90.7801 873.969 91.4414C872.439 92.0614 871.117 92.9708 870.001 94.1694C868.926 95.3268 868.099 96.7114 867.521 98.3234C866.942 99.9354 866.653 101.713 866.653 103.655C866.653 105.35 867.025 106.838 867.769 108.119C868.554 109.401 869.649 110.393 871.055 111.095C872.501 111.798 874.217 112.149 876.201 112.149C877.854 112.149 879.507 111.881 881.161 111.343C882.814 110.765 884.509 109.793 886.245 108.429L891.763 118.845C889.489 120.499 886.844 121.78 883.827 122.689C880.809 123.557 877.585 123.991 874.155 123.991ZM879.487 116.613L882.773 100.121H895.483L891.763 118.845L879.487 116.613Z" fill="#F28627"/>
<path d="M34.3615 123.991C29.8975 123.991 25.9915 123.185 22.6435 121.573C19.2955 119.92 16.6915 117.647 14.8315 114.753C13.0128 111.819 12.1035 108.429 12.1035 104.585C12.1035 100.783 12.7648 97.2901 14.0875 94.1074C15.4515 90.9248 17.3528 88.1761 19.7915 85.8614C22.2302 83.5468 25.1235 81.7694 28.4715 80.5294C31.8195 79.2481 35.4982 78.6074 39.5075 78.6074C43.6822 78.6074 47.3815 79.3514 50.6055 80.8394C53.8295 82.3274 56.2268 84.4768 57.7975 87.2874L47.2575 95.5334C46.3482 93.9214 45.1702 92.6814 43.7235 91.8134C42.2768 90.9041 40.5615 90.4494 38.5775 90.4494C36.8415 90.4494 35.2502 90.7801 33.8035 91.4414C32.3982 92.0614 31.1788 92.9708 30.1455 94.1694C29.1122 95.3268 28.3062 96.7114 27.7275 98.3234C27.1488 99.9354 26.8595 101.713 26.8595 103.655C26.8595 105.35 27.2315 106.838 27.9755 108.119C28.7195 109.401 29.7529 110.393 31.0755 111.095C32.4395 111.798 34.0102 112.149 35.7875 112.149C37.4822 112.149 39.1355 111.757 40.7475 110.971C42.4008 110.186 43.9715 108.905 45.4595 107.127L54.0775 115.373C51.4322 118.597 48.4769 120.85 45.2115 122.131C41.9875 123.371 38.3708 123.991 34.3615 123.991Z" fill="#D93B3B"/>
<path d="M69.4622 122.999L59.7902 79.5994H74.7942L82.6062 116.365H73.0582L95.8742 79.5994H110.878L83.8462 122.999H69.4622Z" fill="#D93B3B"/>
<path d="M1234.06 95.7196H1253.41L1251.3 106.26H1231.96L1234.06 95.7196ZM1231.77 111.964H1253.53L1251.3 123H1215.22L1223.9 79.5996H1259.17L1256.94 90.6356H1236.05L1231.77 111.964Z" fill="#37BAD4"/>
<path d="M1256.93 123L1265.61 79.5996H1277.64L1293.95 106.012H1288.86L1294.13 79.5996H1308.39L1299.71 123H1287.68L1271.38 96.5876H1276.46L1271.19 123H1256.93Z" fill="#37BAD4"/>
<path d="M1316.19 123L1322.57 90.9456H1309.86L1312.16 79.5996H1352.21L1349.91 90.9456H1337.2L1330.82 123H1316.19Z" fill="#37BAD4"/>
<path d="M1347.33 123L1356.01 79.5996H1375.48C1381.22 79.5996 1385.67 80.8603 1388.81 83.3816C1391.95 85.8616 1393.52 89.3543 1393.52 93.8596C1393.52 97.4969 1392.61 100.68 1390.79 103.408C1389.01 106.136 1386.47 108.264 1383.17 109.794C1379.9 111.323 1376.04 112.088 1371.57 112.088H1357.56L1365.37 105.95L1361.96 123H1347.33ZM1373.87 123L1364.94 107.19H1380L1389.06 123H1373.87ZM1365 107.686L1359.85 101.052H1372.32C1374.34 101.052 1375.91 100.556 1377.03 99.5636C1378.14 98.5303 1378.7 97.1043 1378.7 95.2856C1378.7 93.7149 1378.21 92.5989 1377.21 91.9376C1376.26 91.2349 1374.94 90.8836 1373.25 90.8836H1361.9L1369.71 84.0636L1365 107.686Z" fill="#37BAD4"/>
<path d="M1412.37 95.7196H1431.72L1429.61 106.26H1410.27L1412.37 95.7196ZM1410.08 111.964H1431.84L1429.61 123H1393.53L1402.21 79.5996H1437.48L1435.25 90.6356H1414.36L1410.08 111.964Z" fill="#37BAD4"/>
<path d="M1444.67 123L1451.05 90.9456H1438.34L1440.64 79.5996H1480.69L1478.4 90.9456H1465.69L1459.3 123H1444.67Z" fill="#37BAD4"/>
<path d="M1475.81 123L1484.49 79.5996H1499.12L1490.44 123H1475.81Z" fill="#37BAD4"/>
<path d="M1516.33 95.7196H1535.68L1533.57 106.26H1514.23L1516.33 95.7196ZM1514.04 111.964H1535.8L1533.57 123H1497.49L1506.17 79.5996H1541.44L1539.21 90.6356H1518.32L1514.04 111.964Z" fill="#37BAD4"/>
<path d="M1539.2 123L1547.88 79.5996H1559.91L1576.22 106.012H1571.13L1576.4 79.5996H1590.66L1581.98 123H1569.95L1553.65 96.5876H1558.73L1553.46 123H1539.2Z" fill="#37BAD4"/>
<path d="M965 99H1157" stroke="#EAEAEA" stroke-dasharray="10 10"/>
<path d="M214 99H406" stroke="#EAEAEA" stroke-dasharray="10 10"/>
</svg>
