<svg width="1645" height="217" viewBox="0 0 1645 217" fill="none" xmlns="http://www.w3.org/2000/svg">
<path fill-rule="evenodd" clip-rule="evenodd" d="M1.36383 64L10.2289 19.8846H0L3.83756 1H38L25.34 64H1.36383ZM12.583 17.9639L3.71791 62.0793H23.7578L35.6459 2.92073H5.41621L2.35927 17.9639H12.583Z" fill="#D93B3B"/>
<path fill-rule="evenodd" clip-rule="evenodd" d="M672 64L675.007 48.8245L699.966 29.4812C701.705 28.1094 702.98 26.9735 703.829 26.0657L703.848 26.0458L703.867 26.0265C704.769 25.116 705.292 24.3566 705.553 23.7539C705.847 23.0765 705.978 22.4397 705.978 21.83C705.978 21.1247 705.743 20.6469 705.209 20.228L705.188 20.2116L705.168 20.1947C704.658 19.7704 703.852 19.4537 702.54 19.4537C701.207 19.4537 699.884 19.8389 698.542 20.6793L698.526 20.6893C697.228 21.4844 695.991 22.6637 694.833 24.2897L693.803 25.7362L677.664 15.6724L678.583 14.0667C681.055 9.74516 684.692 6.33849 689.415 3.83509C694.214 1.26476 699.603 0 705.539 0C710.078 0 714.194 0.76356 717.851 2.33602C721.537 3.89681 724.512 6.06799 726.687 8.89028L725.193 10.063C723.249 7.54155 720.557 5.55237 717.114 4.09551C713.728 2.63865 709.869 1.91022 705.539 1.91022C699.876 1.91022 694.795 3.11493 690.298 5.52435C686.475 7.55026 683.454 10.1782 681.235 13.4083C681.136 13.5526 681.038 13.698 680.942 13.8446C680.691 14.2288 680.451 14.6213 680.222 15.022L693.296 23.1748C694.573 21.3817 695.989 20.0089 697.544 19.0563C699.154 18.0478 700.819 17.5435 702.54 17.5435C704.151 17.5435 705.428 17.9357 706.371 18.7202C707.371 19.5046 707.87 20.5412 707.87 21.83C707.87 22.7265 707.676 23.623 707.287 24.5196C706.899 25.4161 706.205 26.3687 705.205 27.3773C704.262 28.3859 702.901 29.5906 701.125 30.9914L676.724 49.9026L674.309 62.0898H721.029L724.11 46.7087H705.205L714.2 39.8166C717.697 37.127 720.446 34.6616 722.444 32.4202C724.499 30.1229 725.942 27.8816 726.775 25.6963C727.663 23.4549 728.107 21.1296 728.107 18.7202C728.107 15.4702 727.136 12.5845 725.193 10.063L726.687 8.89028C728.893 11.7533 730 15.0534 730 18.7202C730 21.3689 729.511 23.9311 728.537 26.3941C727.598 28.8513 726.009 31.2845 723.851 33.6986C721.746 36.0591 718.899 38.6049 715.347 41.3361L715.344 41.338L710.828 44.7985H726.424L722.577 64H672Z" fill="#F28627"/>
<path fill-rule="evenodd" clip-rule="evenodd" d="M1360.63 63.4269L1360.62 63.4253C1356.58 62.367 1352.89 60.7438 1349.58 58.5479L1348 57.501L1359.02 40.547L1360.61 41.5568C1362.74 42.9081 1365.01 43.9221 1367.45 44.6005C1369.99 45.2367 1372.37 45.5463 1374.59 45.5463C1376.31 45.5463 1377.64 45.361 1378.62 45.0479L1378.64 45.0406C1379.71 44.7132 1380.29 44.3081 1380.59 43.9533L1380.6 43.944C1380.96 43.5171 1381.14 43.0374 1381.14 42.4136C1381.14 41.8603 1380.98 41.6454 1380.66 41.4545L1380.62 41.4339L1380.59 41.4118C1380.11 41.0977 1379.08 40.7937 1377.18 40.7937H1366.74L1369.75 25.6791L1372.05 23.6846L1371.64 23.4413H1372.33L1376.55 19.7813H1358.61L1362.39 1H1410L1406.99 16.1146L1395.48 26.0889C1398.21 27.4558 1400.41 29.3016 1402.03 31.6499C1403.96 34.3583 1404.89 37.5257 1404.89 41.0688C1404.89 45.7051 1403.43 49.9 1400.55 53.5919C1397.75 57.1958 1393.92 59.9828 1389.15 61.9919C1384.41 64.0112 1379.1 65 1373.25 65C1368.9 65 1364.7 64.477 1360.63 63.4269ZM1388.41 60.2321C1392.93 58.327 1396.48 55.7214 1399.05 52.4155C1401.67 49.0535 1402.99 45.2713 1402.99 41.0688C1402.99 37.8749 1402.15 35.1012 1400.47 32.7479C1398.92 30.4954 1396.73 28.7306 1393.9 27.4535C1393.78 27.3962 1393.65 27.3399 1393.52 27.2846C1393 27.0576 1392.46 26.8505 1391.9 26.6634L1405.25 15.0974L1407.68 2.91022H1363.95L1360.93 17.8711H1381.67L1371.49 26.6963L1369.06 38.8835H1377.18C1379.2 38.8835 1380.68 39.1917 1381.62 39.808C1382.57 40.3684 1383.05 41.2369 1383.05 42.4136C1383.05 43.4782 1382.71 44.4027 1382.04 45.1872C1381.43 45.9156 1380.48 46.476 1379.2 46.8682C1377.97 47.2604 1376.43 47.4565 1374.59 47.4565C1372.19 47.4565 1369.65 47.1203 1366.96 46.4479C1364.34 45.7195 1361.88 44.6269 1359.59 43.17L1350.63 56.9542C1350.73 57.0241 1350.84 57.0935 1350.95 57.1622C1351.37 57.4382 1351.81 57.7044 1352.25 57.9608C1354.95 59.5336 1357.9 60.7389 1361.1 61.5769C1365.01 62.5855 1369.06 63.0898 1373.25 63.0898C1378.89 63.0898 1383.94 62.1372 1388.41 60.2321Z" fill="#37BAD4"/>
<path fill-rule="evenodd" clip-rule="evenodd" d="M58 109.5C58 109.224 58.4264 109 58.9525 109H63.6818V110H58.9525C58.4264 110 58 109.776 58 109.5ZM82.5991 110H73.1405V109H82.5991V110ZM101.516 110H92.0578V109H101.516V110ZM120.434 110H110.975V109H120.434V110ZM139.351 110H129.892V109H139.351V110ZM158.268 110H148.81V109H158.268V110ZM177.186 110H167.727V109H177.186V110ZM196.103 110H186.644V109H196.103V110ZM215.02 110H205.562V109H215.02V110ZM233.938 110H224.479V109H233.938V110ZM252.855 110H243.396V109H252.855V110ZM271.772 110H262.314V109H271.772V110ZM290.69 110H281.231V109H290.69V110ZM309.607 110H300.148V109H309.607V110ZM328.524 110H319.066V109H328.524V110ZM347.442 110H337.983V109H347.442V110ZM366.359 110H356.9V109H366.359V110ZM385.276 110H375.818V109H385.276V110ZM404.194 110H394.735V109H404.194V110ZM423.111 110H413.652V109H423.111V110ZM442.028 110H432.57V109H442.028V110ZM460.946 110H451.487V109H460.946V110ZM479.863 110H470.404V109H479.863V110ZM498.78 110H489.321V109H498.78V110ZM517.697 110H508.239V109H517.697V110ZM536.615 110H527.156V109H536.615V110ZM555.532 110H546.073V109H555.532V110ZM574.449 110H564.991V109H574.449V110ZM593.367 110H583.908V109H593.367V110ZM612.284 110H602.825V109H612.284V110ZM631.201 110H621.743V109H631.201V110ZM650.119 110H640.66V109H650.119V110ZM669.036 110H659.577V109H669.036V110ZM687.953 110H678.494V109H687.953V110ZM706.87 110H697.412V109H706.87V110ZM725.788 110H716.329V109H725.788V110ZM744.705 110H735.246V109H744.705V110ZM763.622 110H754.164V109H763.622V110ZM782.54 110H773.081V109H782.54V110ZM801.457 110H791.998V109H801.457V110ZM820.374 110H810.916V109H820.374V110ZM839.292 110H829.833V109H839.292V110ZM858.209 110H848.75V109H858.209V110ZM877.126 110H867.668V109H877.126V110ZM896.043 110H886.585V109H896.043V110ZM914.961 110H905.502V109H914.961V110ZM933.878 110H924.419V109H933.878V110ZM952.795 110H943.337V109H952.795V110ZM971.713 110H962.254V109H971.713V110ZM990.63 110H981.171V109H990.63V110ZM1009.55 110H1000.09V109H1009.55V110ZM1028.46 110H1019.01V109H1028.46V110ZM1047.38 110H1037.92V109H1047.38V110ZM1066.3 110H1056.84V109H1066.3V110ZM1085.22 110H1075.76V109H1085.22V110ZM1104.13 110H1094.68V109H1104.13V110ZM1123.05 110H1113.59V109H1123.05V110ZM1141.97 110H1132.51V109H1141.97V110ZM1160.89 110H1151.43V109H1160.89V110ZM1179.8 110H1170.34V109H1179.8V110ZM1198.72 110H1189.26V109H1198.72V110ZM1217.64 110H1208.18V109H1217.64V110ZM1236.55 110H1227.1V109H1236.55V110ZM1255.47 110H1246.01V109H1255.47V110ZM1274.39 110H1264.93V109H1274.39V110ZM1293.31 110H1283.85V109H1293.31V110ZM1312.22 110H1302.77V109H1312.22V110ZM1331.14 110H1321.68V109H1331.14V110ZM1350.06 110H1340.6V109H1350.06V110ZM1368.98 110H1359.52V109H1368.98V110ZM1387.89 110H1378.43V109H1387.89V110ZM1406.81 110H1397.35V109H1406.81V110ZM1421 110H1416.27V109H1421V110Z" fill="#D9D9D9"/>
<path d="M82 109.5C82 119.165 74.3888 127 65 127C55.6112 127 48 119.165 48 109.5C48 99.835 55.6112 92 65 92C74.3888 92 82 99.835 82 109.5Z" fill="#D93B3B"/>
<path d="M760 109.5C760 119.165 752.389 127 743 127C733.611 127 726 119.165 726 109.5C726 99.835 733.611 92 743 92C752.389 92 760 99.835 760 109.5Z" fill="#F28627"/>
<path d="M1436 109.5C1436 119.165 1428.61 127 1419.5 127C1410.39 127 1403 119.165 1403 109.5C1403 99.835 1410.39 92 1419.5 92C1428.61 92 1436 99.835 1436 109.5Z" fill="#37BAD4"/>
<path d="M652 204.745L660.533 162.278H668.578L680.706 192.369L676.44 192.308L700.087 162.278H708.559L700.087 204.745H690.823L696.491 176.292H698.381L679.548 200.256H675.16L665.104 176.232L666.932 176.414L661.264 204.745H652Z" fill="#0A2E40"/>
<path d="M724.41 205.231C721.891 205.231 719.554 204.664 717.401 203.532C715.247 202.359 713.521 200.68 712.22 198.496C710.92 196.312 710.27 193.684 710.27 190.61C710.27 187.859 710.717 185.332 711.611 183.026C712.545 180.721 713.846 178.719 715.512 177.02C717.177 175.322 719.107 174.007 721.302 173.077C723.496 172.106 725.852 171.621 728.371 171.621C731.094 171.621 733.43 172.126 735.38 173.138C737.331 174.149 738.773 175.726 739.708 177.87C740.683 179.973 741.028 182.703 740.744 186.06C740.54 189.902 739.748 193.279 738.367 196.191C736.985 199.063 735.116 201.287 732.76 202.865C730.444 204.442 727.66 205.231 724.41 205.231ZM727.335 197.404C729.204 197.404 730.85 196.96 732.272 196.07C733.735 195.14 734.872 193.886 735.685 192.308C736.538 190.691 736.965 188.81 736.965 186.666C736.965 184.442 736.295 182.683 734.954 181.388C733.653 180.094 731.825 179.447 729.468 179.447C727.64 179.447 725.994 179.912 724.532 180.842C723.069 181.732 721.911 182.986 721.058 184.604C720.245 186.181 719.839 188.041 719.839 190.185C719.839 192.41 720.489 194.169 721.789 195.463C723.13 196.757 724.979 197.404 727.335 197.404ZM733.857 204.745L735.137 198.254L737.27 188.547L738.55 178.84L739.89 172.106H749.398L742.877 204.745H733.857Z" fill="#0A2E40"/>
<path d="M765.027 205.231C762.67 205.231 760.659 204.765 758.993 203.835C757.327 202.865 756.128 201.489 755.397 199.71C754.706 197.89 754.605 195.746 755.092 193.279L760.76 164.887H770.268L764.6 193.218C764.356 194.594 764.499 195.686 765.027 196.494C765.555 197.303 766.53 197.708 767.952 197.708C768.602 197.708 769.252 197.607 769.903 197.404C770.593 197.202 771.223 196.919 771.792 196.555L773.194 203.289C772.015 204.017 770.715 204.523 769.293 204.806C767.871 205.089 766.449 205.231 765.027 205.231ZM752.654 180.114L754.117 172.834H776.85L775.388 180.114H752.654Z" fill="#0A2E40"/>
<path d="M794.462 205.231C791.09 205.231 788.144 204.624 785.625 203.411C783.146 202.197 781.216 200.498 779.835 198.314C778.453 196.13 777.763 193.562 777.763 190.61C777.763 186.97 778.616 183.734 780.323 180.903C782.029 178.031 784.386 175.766 787.392 174.108C790.399 172.45 793.853 171.621 797.753 171.621C801.248 171.621 804.275 172.349 806.834 173.805C809.394 175.22 811.284 177.243 812.503 179.872L804.458 183.876C803.767 182.339 802.792 181.226 801.532 180.539C800.313 179.811 798.85 179.447 797.144 179.447C795.275 179.447 793.609 179.912 792.146 180.842C790.684 181.732 789.526 182.986 788.672 184.604C787.819 186.181 787.392 188.021 787.392 190.124C787.392 192.349 788.043 194.128 789.343 195.463C790.684 196.757 792.573 197.404 795.011 197.404C796.677 197.404 798.2 197.061 799.582 196.373C800.963 195.645 802.121 194.533 803.056 193.036L810.065 197.404C808.521 199.872 806.367 201.793 803.604 203.168C800.882 204.543 797.835 205.231 794.462 205.231Z" fill="#0A2E40"/>
<path d="M838.581 171.621C841.344 171.621 843.701 172.207 845.651 173.38C847.601 174.513 848.983 176.191 849.795 178.416C850.649 180.64 850.75 183.39 850.1 186.666L846.443 204.745H836.936L840.471 187.273C840.958 184.887 840.755 183.047 839.861 181.752C839.008 180.458 837.423 179.811 835.107 179.811C832.71 179.811 830.699 180.498 829.073 181.874C827.489 183.249 826.392 185.352 825.782 188.183L822.491 204.745H812.983L822.004 159.73H831.511L827.184 181.328L825.295 178.537C826.879 176.151 828.83 174.412 831.146 173.32C833.502 172.187 835.981 171.621 838.581 171.621Z" fill="#0A2E40"/>
<path d="M855.123 204.745L861.644 172.106H871.091L864.569 204.745H855.123ZM867.982 167.556C866.317 167.556 864.976 167.091 863.96 166.161C862.944 165.19 862.436 164.017 862.436 162.642C862.436 161.024 863.005 159.69 864.143 158.638C865.321 157.546 866.845 157 868.714 157C870.38 157 871.721 157.465 872.736 158.395C873.793 159.285 874.321 160.397 874.321 161.732C874.321 163.471 873.732 164.887 872.553 165.979C871.416 167.03 869.892 167.556 867.982 167.556Z" fill="#0A2E40"/>
<path d="M898.993 171.621C901.796 171.621 904.173 172.207 906.123 173.38C908.074 174.513 909.455 176.191 910.268 178.416C911.08 180.64 911.162 183.39 910.512 186.666L906.855 204.745H897.347L900.882 187.273C901.37 184.887 901.166 183.047 900.272 181.752C899.419 180.458 897.835 179.811 895.519 179.811C893.121 179.811 891.11 180.498 889.485 181.874C887.9 183.249 886.803 185.352 886.194 188.183L882.903 204.745H873.395L879.916 172.106H888.936L887.047 181.328L885.706 178.537C887.291 176.151 889.241 174.412 891.557 173.32C893.914 172.187 896.392 171.621 898.993 171.621Z" fill="#0A2E40"/>
<path d="M929.61 217C926.441 217 923.515 216.636 920.834 215.908C918.193 215.18 915.917 214.108 914.007 212.693L918.518 205.837C919.818 206.889 921.484 207.738 923.515 208.385C925.587 209.032 927.761 209.356 930.037 209.356C933.328 209.356 935.786 208.648 937.411 207.233C939.077 205.817 940.194 203.714 940.763 200.923L941.921 195.038L944.115 187.394L945.578 179.144L946.919 172.106H956L950.576 199.285C949.316 205.554 946.919 210.064 943.384 212.814C939.89 215.605 935.298 217 929.61 217ZM931.012 203.168C928.33 203.168 925.892 202.622 923.698 201.53C921.504 200.438 919.757 198.881 918.457 196.858C917.156 194.796 916.506 192.329 916.506 189.457C916.506 186.949 916.953 184.624 917.847 182.48C918.782 180.337 920.062 178.456 921.687 176.838C923.353 175.18 925.283 173.906 927.477 173.016C929.711 172.086 932.149 171.621 934.79 171.621C937.188 171.621 939.361 172.066 941.312 172.956C943.262 173.845 944.765 175.281 945.822 177.263C946.919 179.245 947.325 181.894 947.041 185.21C946.797 188.81 946.005 191.965 944.664 194.674C943.323 197.344 941.495 199.427 939.179 200.923C936.903 202.42 934.181 203.168 931.012 203.168ZM933.571 195.402C935.441 195.402 937.086 194.998 938.508 194.189C939.93 193.38 941.048 192.268 941.86 190.852C942.673 189.396 943.079 187.738 943.079 185.878C943.079 183.896 942.429 182.339 941.129 181.206C939.829 180.033 938.021 179.447 935.705 179.447C933.836 179.447 932.17 179.851 930.707 180.66C929.285 181.469 928.147 182.602 927.294 184.058C926.481 185.473 926.075 187.111 926.075 188.972C926.075 190.953 926.745 192.531 928.086 193.704C929.427 194.836 931.256 195.402 933.571 195.402Z" fill="#0A2E40"/>
<path d="M1365.22 186.743H1385.8L1384.27 194.509H1363.7L1365.22 186.743ZM1362.42 204.494H1385.73L1384.09 212.507H1351L1359.55 169.362H1391.84L1390.19 177.375H1367.79L1362.42 204.494Z" fill="#0A2E40"/>
<path d="M1416.98 178.854C1419.79 178.854 1422.17 179.45 1424.13 180.642C1426.08 181.792 1427.46 183.497 1428.28 185.757C1429.09 188.017 1429.17 190.811 1428.52 194.14L1424.86 212.507H1415.34L1418.88 194.756C1419.36 192.332 1419.16 190.462 1418.27 189.147C1417.41 187.832 1415.82 187.175 1413.5 187.175C1411.1 187.175 1409.09 187.873 1407.46 189.27C1405.87 190.668 1404.77 192.804 1404.16 195.681L1400.87 212.507H1391.34L1397.88 179.347H1406.91L1405.02 188.716L1403.68 185.881C1405.26 183.456 1407.22 181.689 1409.54 180.58C1411.9 179.429 1414.38 178.854 1416.98 178.854Z" fill="#0A2E40"/>
<path d="M1446.92 213C1444.56 213 1442.55 212.527 1440.88 211.582C1439.21 210.596 1438.01 209.199 1437.28 207.391C1436.58 205.542 1436.48 203.364 1436.97 200.858L1442.65 172.013H1452.17L1446.49 200.796C1446.25 202.193 1446.39 203.303 1446.92 204.125C1447.45 204.946 1448.43 205.357 1449.85 205.357C1450.5 205.357 1451.15 205.255 1451.8 205.049C1452.5 204.844 1453.13 204.556 1453.7 204.186L1455.1 211.028C1453.92 211.767 1452.62 212.281 1451.19 212.569C1449.77 212.856 1448.35 213 1446.92 213ZM1434.53 187.483L1435.99 180.087H1458.76L1457.3 187.483H1434.53Z" fill="#0A2E40"/>
<path d="M1460.08 212.507L1466.61 179.347H1475.65L1473.76 188.777L1472.9 186.065C1474.37 183.395 1476.28 181.525 1478.64 180.457C1481 179.388 1483.83 178.854 1487.12 178.854L1485.41 187.73C1485.01 187.688 1484.62 187.668 1484.25 187.668C1483.93 187.627 1483.58 187.606 1483.22 187.606C1480.41 187.606 1478.11 188.305 1476.32 189.702C1474.57 191.099 1473.39 193.359 1472.78 196.482L1469.6 212.507H1460.08Z" fill="#0A2E40"/>
<path d="M1503.35 213C1499.93 213 1496.96 212.384 1494.44 211.151C1491.96 209.918 1490.02 208.192 1488.64 205.974C1487.26 203.755 1486.57 201.145 1486.57 198.146C1486.57 194.448 1487.38 191.161 1489.01 188.284C1490.68 185.367 1492.96 183.066 1495.84 181.381C1498.77 179.696 1502.13 178.854 1505.92 178.854C1509.13 178.854 1511.9 179.47 1514.22 180.703C1516.54 181.895 1518.33 183.579 1519.59 185.757C1520.89 187.894 1521.54 190.462 1521.54 193.462C1521.54 194.325 1521.48 195.187 1521.36 196.05C1521.28 196.913 1521.16 197.735 1521 198.516H1493.83L1494.81 192.907H1516.54L1512.63 194.633C1512.96 192.784 1512.86 191.243 1512.33 190.01C1511.8 188.736 1510.94 187.771 1509.76 187.113C1508.58 186.415 1507.16 186.065 1505.49 186.065C1503.41 186.065 1501.64 186.579 1500.18 187.606C1498.75 188.592 1497.68 189.969 1496.94 191.736C1496.21 193.503 1495.84 195.496 1495.84 197.714C1495.84 200.262 1496.54 202.173 1497.92 203.447C1499.34 204.679 1501.48 205.296 1504.33 205.296C1506 205.296 1507.61 205.029 1509.15 204.494C1510.7 203.96 1512.02 203.2 1513.12 202.214L1517.09 208.562C1515.18 210.083 1513.02 211.213 1510.62 211.952C1508.26 212.651 1505.84 213 1503.35 213Z" fill="#0A2E40"/>
<path d="M1537.6 213C1535.23 213 1533.22 212.527 1531.55 211.582C1529.88 210.596 1528.68 209.199 1527.95 207.391C1527.26 205.542 1527.16 203.364 1527.64 200.858L1533.32 172.013H1542.85L1537.17 200.796C1536.92 202.193 1537.07 203.303 1537.6 204.125C1538.12 204.946 1539.1 205.357 1540.53 205.357C1541.18 205.357 1541.83 205.255 1542.48 205.049C1543.17 204.844 1543.8 204.556 1544.37 204.186L1545.78 211.028C1544.6 211.767 1543.29 212.281 1541.87 212.569C1540.44 212.856 1539.02 213 1537.6 213ZM1525.2 187.483L1526.67 180.087H1549.44L1547.97 187.483H1525.2Z" fill="#0A2E40"/>
<path d="M1550.76 212.507L1557.29 179.347H1566.75L1560.22 212.507H1550.76ZM1563.64 174.725C1561.97 174.725 1560.62 174.252 1559.61 173.307C1558.59 172.321 1558.08 171.129 1558.08 169.732C1558.08 168.088 1558.65 166.732 1559.79 165.664C1560.97 164.555 1562.5 164 1564.37 164C1566.04 164 1567.38 164.473 1568.4 165.418C1569.46 166.322 1569.98 167.452 1569.98 168.808C1569.98 170.574 1569.39 172.013 1568.21 173.122C1567.07 174.19 1565.55 174.725 1563.64 174.725Z" fill="#0A2E40"/>
<path d="M1586.52 213C1583.1 213 1580.13 212.384 1577.6 211.151C1575.12 209.918 1573.19 208.192 1571.8 205.974C1570.42 203.755 1569.73 201.145 1569.73 198.146C1569.73 194.448 1570.54 191.161 1572.17 188.284C1573.84 185.367 1576.12 183.066 1579.01 181.381C1581.94 179.696 1585.29 178.854 1589.08 178.854C1592.29 178.854 1595.06 179.47 1597.38 180.703C1599.7 181.895 1601.49 183.579 1602.75 185.757C1604.06 187.894 1604.71 190.462 1604.71 193.462C1604.71 194.325 1604.65 195.187 1604.52 196.05C1604.44 196.913 1604.32 197.735 1604.16 198.516H1576.99L1577.97 192.907H1599.7L1595.79 194.633C1596.12 192.784 1596.02 191.243 1595.49 190.01C1594.96 188.736 1594.11 187.771 1592.93 187.113C1591.75 186.415 1590.32 186.065 1588.65 186.065C1586.58 186.065 1584.81 186.579 1583.34 187.606C1581.92 188.592 1580.84 189.969 1580.11 191.736C1579.37 193.503 1579.01 195.496 1579.01 197.714C1579.01 200.262 1579.7 202.173 1581.08 203.447C1582.51 204.679 1584.64 205.296 1587.49 205.296C1589.16 205.296 1590.77 205.029 1592.32 204.494C1593.86 203.96 1595.18 203.2 1596.28 202.214L1600.25 208.562C1598.34 210.083 1596.18 211.213 1593.78 211.952C1591.42 212.651 1589 213 1586.52 213Z" fill="#0A2E40"/>
<path d="M1633.03 178.854C1635.84 178.854 1638.22 179.45 1640.17 180.642C1642.12 181.792 1643.51 183.497 1644.32 185.757C1645.14 188.017 1645.22 190.811 1644.57 194.14L1640.9 212.507H1631.38L1634.92 194.756C1635.41 192.332 1635.21 190.462 1634.31 189.147C1633.46 187.832 1631.87 187.175 1629.55 187.175C1627.15 187.175 1625.13 187.873 1623.51 189.27C1621.92 190.668 1620.82 192.804 1620.21 195.681L1616.91 212.507H1607.39L1613.92 179.347H1622.96L1621.06 188.716L1619.72 185.881C1621.31 183.456 1623.26 181.689 1625.58 180.58C1627.94 179.429 1630.42 178.854 1633.03 178.854Z" fill="#0A2E40"/>
<path d="M32.6228 205C28.3491 205 24.6599 204.235 21.5554 202.706C18.4912 201.136 16.1326 198.983 14.4796 196.247C12.8265 193.47 12 190.27 12 186.648C12 183.026 12.6249 179.686 13.8748 176.627C15.1247 173.528 16.8987 170.852 19.1968 168.598C21.5353 166.304 24.2971 164.514 27.4822 163.226C30.7077 161.938 34.2758 161.294 38.1867 161.294C42.4604 161.294 46.1294 162.079 49.1936 163.648C52.2981 165.178 54.6769 167.331 56.3299 170.108C57.983 172.844 58.8095 176.024 58.8095 179.646C58.8095 183.268 58.1846 186.628 56.9347 189.727C55.6848 192.786 53.8907 195.462 51.5522 197.756C49.2541 200.01 46.4923 201.78 43.2668 203.068C40.0817 204.356 36.5337 205 32.6228 205ZM33.4695 196.669C35.8483 196.669 37.9851 196.247 39.8801 195.402C41.8154 194.516 43.4482 193.309 44.7787 191.78C46.1092 190.25 47.1172 188.5 47.8026 186.528C48.5283 184.515 48.8912 182.402 48.8912 180.189C48.8912 178.096 48.4477 176.265 47.5607 174.696C46.6737 173.086 45.3634 171.838 43.6297 170.953C41.9363 170.067 39.8398 169.625 37.34 169.625C34.9612 169.625 32.8244 170.067 30.9294 170.953C29.0345 171.798 27.4016 172.985 26.0308 174.514C24.7003 176.044 23.6721 177.815 22.9464 179.827C22.261 181.799 21.9183 183.892 21.9183 186.105C21.9183 188.198 22.3618 190.049 23.2488 191.659C24.1761 193.228 25.4865 194.456 27.1798 195.341C28.9135 196.227 31.0101 196.669 33.4695 196.669Z" fill="#0A2E40"/>
<path d="M62.4764 204.276L69.2499 170.651C69.9756 167.109 71.5077 164.292 73.8462 162.199C76.2249 160.066 79.4101 159 83.4016 159C84.8934 159 86.2843 159.161 87.5745 159.483C88.8647 159.765 89.9735 160.207 90.9008 160.811L87.2117 167.572C86.1231 166.808 84.8732 166.425 83.4621 166.425C82.0106 166.425 80.8817 166.828 80.0753 167.633C79.269 168.397 78.6843 169.625 78.3215 171.315L77.6562 174.333L77.1724 178.136L71.9714 204.276H62.4764ZM62.3555 179.766L63.8069 172.522H86.365L84.9135 179.766H62.3555Z" fill="#0A2E40"/>
<path d="M86.3366 204.276L93.1101 170.651C93.8358 167.109 95.3679 164.292 97.7064 162.199C100.085 160.066 103.27 159 107.262 159C108.754 159 110.145 159.161 111.435 159.483C112.725 159.765 113.834 160.207 114.761 160.811L111.072 167.572C109.983 166.808 108.733 166.425 107.322 166.425C105.871 166.425 104.742 166.828 103.936 167.633C103.129 168.397 102.545 169.625 102.182 171.315L101.516 174.333L101.033 178.136L95.8316 204.276H86.3366ZM86.2157 179.766L87.6671 172.522H110.225L108.774 179.766H86.2157Z" fill="#0A2E40"/>
<path d="M109.167 204.276L115.638 171.798H124.589L122.714 181.034L121.868 178.378C123.319 175.762 125.214 173.931 127.552 172.885C129.891 171.838 132.693 171.315 135.959 171.315L134.265 180.008C133.862 179.968 133.479 179.948 133.116 179.948C132.794 179.907 132.451 179.887 132.088 179.887C129.306 179.887 127.028 180.571 125.254 181.94C123.521 183.308 122.351 185.521 121.747 188.58L118.602 204.276H109.167Z" fill="#0A2E40"/>
<path d="M151.978 204.759C148.591 204.759 145.648 204.155 143.148 202.948C140.689 201.74 138.774 200.05 137.403 197.877C136.032 195.703 135.346 193.148 135.346 190.21C135.346 186.588 136.153 183.368 137.766 180.551C139.419 177.694 141.676 175.44 144.539 173.79C147.442 172.14 150.768 171.315 154.518 171.315C157.703 171.315 160.445 171.919 162.743 173.126C165.041 174.293 166.815 175.943 168.065 178.076C169.355 180.169 170 182.684 170 185.622C170 186.467 169.94 187.312 169.819 188.157C169.738 189.003 169.617 189.808 169.456 190.572H142.543L143.511 185.079H165.041L161.17 186.769C161.493 184.958 161.392 183.449 160.868 182.241C160.344 180.994 159.497 180.048 158.328 179.404C157.159 178.72 155.748 178.378 154.094 178.378C152.038 178.378 150.284 178.881 148.833 179.887C147.422 180.853 146.353 182.201 145.628 183.932C144.902 185.662 144.539 187.614 144.539 189.787C144.539 192.283 145.224 194.154 146.595 195.402C148.006 196.609 150.123 197.213 152.945 197.213C154.598 197.213 156.191 196.951 157.723 196.428C159.255 195.905 160.566 195.16 161.654 194.194L165.585 200.412C163.69 201.901 161.553 203.008 159.175 203.732C156.836 204.416 154.437 204.759 151.978 204.759Z" fill="#0A2E40"/>
</svg>
