<svg width="1642" height="195" viewBox="0 0 1642 195" fill="none" xmlns="http://www.w3.org/2000/svg">
<path fill-rule="evenodd" clip-rule="evenodd" d="M55.1274 195L81.956 60.5532H51L62.6137 3H166L127.687 195H55.1274ZM89.0802 54.6995L62.2516 189.146H122.899L158.876 8.85366H67.3912L58.1399 54.6995H89.0802Z" fill="#F2F2F2"/>
<path fill-rule="evenodd" clip-rule="evenodd" d="M672 195L681.229 148.762L757.826 89.8255C763.164 85.6458 767.076 82.1848 769.683 79.4188L769.74 79.3584L769.799 79.2996C772.568 76.5254 774.172 74.2116 774.974 72.3752C775.875 70.3113 776.276 68.3709 776.276 66.5132C776.276 64.3644 775.556 62.9085 773.918 61.6321L773.854 61.5823L773.792 61.5307C772.225 60.238 769.752 59.2729 765.728 59.2729C761.636 59.2729 757.574 60.4466 753.456 63.0074L753.408 63.0376C749.425 65.4603 745.629 69.0534 742.075 74.0075L738.913 78.4149L689.382 47.752L692.202 42.8595C699.79 29.6923 710.95 19.3126 725.445 11.685C740.173 3.85356 756.713 0 774.929 0C788.859 0 801.491 2.32647 812.716 7.11756C824.028 11.8731 833.156 18.4884 839.831 27.0876L835.246 30.6608C829.282 22.9781 821.019 16.9174 810.455 12.4785C800.061 8.03963 788.219 5.8202 774.929 5.8202C757.549 5.8202 741.959 9.4908 728.157 16.832C716.423 23.0047 707.151 31.0119 700.341 40.8535C700.037 41.293 699.738 41.7361 699.444 42.1829C698.673 43.3535 697.935 44.5492 697.232 45.7701L737.358 70.6107C741.277 65.1474 745.622 60.9647 750.393 58.0623C755.334 54.9893 760.446 53.4527 765.728 53.4527C770.669 53.4527 774.588 54.6478 777.484 57.038C780.551 59.4281 782.085 62.5866 782.085 66.5132C782.085 69.2449 781.489 71.9765 780.296 74.7081C779.103 77.4397 776.973 80.342 773.906 83.4151C771.01 86.4882 766.835 90.1588 761.383 94.4269L686.497 152.047L679.085 189.18H822.467L831.923 142.316H773.906L801.509 121.316C812.244 113.121 820.678 105.609 826.812 98.7804C833.116 91.7807 837.546 84.9516 840.102 78.2933C842.828 71.4643 844.191 64.3792 844.191 57.038C844.191 47.1359 841.21 38.3435 835.246 30.6608L839.831 27.0876C846.602 35.8109 850 45.866 850 57.038C850 65.1083 848.5 72.9151 845.509 80.4195C842.629 87.9064 837.752 95.3201 831.128 102.675C824.668 109.867 815.93 117.624 805.029 125.946L805.022 125.952L791.163 136.495H839.024L827.219 195H672Z" fill="#F2F2F2"/>
<path fill-rule="evenodd" clip-rule="evenodd" d="M1386.1 190.207L1386.08 190.202C1373.56 186.978 1362.15 182.032 1351.89 175.341L1347 172.151L1381.14 120.495L1386.06 123.572C1392.63 127.689 1399.69 130.778 1407.23 132.845C1415.11 134.784 1422.47 135.727 1429.34 135.727C1434.67 135.727 1438.78 135.162 1441.82 134.208L1441.89 134.186C1445.21 133.189 1447 131.954 1447.92 130.873L1447.95 130.845C1449.08 129.544 1449.64 128.083 1449.64 126.182C1449.64 124.496 1449.14 123.841 1448.14 123.26L1448.03 123.197L1447.92 123.13C1446.43 122.173 1443.24 121.246 1437.38 121.246H1405.02L1414.35 75.1941L1421.48 69.117L1420.21 68.3757H1422.35L1435.43 57.2242H1379.84L1391.57 0H1539L1529.67 46.0523L1494.03 76.4428C1502.48 80.6074 1509.31 86.2314 1514.32 93.3863C1520.28 101.638 1523.18 111.289 1523.18 122.085C1523.18 136.211 1518.66 148.992 1509.73 160.241C1501.06 171.222 1489.2 179.713 1474.43 185.835C1459.76 191.987 1443.31 195 1425.19 195C1411.74 195 1398.7 193.406 1386.1 190.207ZM1472.14 180.473C1486.15 174.668 1497.13 166.729 1505.09 156.657C1513.22 146.413 1517.28 134.889 1517.28 122.085C1517.28 112.353 1514.69 103.902 1509.5 96.7317C1504.7 89.8689 1497.92 84.4918 1489.16 80.6004C1488.76 80.4259 1488.37 80.2544 1487.97 80.086C1486.35 79.3941 1484.68 78.7632 1482.96 78.1932L1524.28 42.9531L1531.81 5.8202H1396.39L1387.05 51.404H1451.27L1419.74 78.2933L1412.21 115.426H1437.38C1443.6 115.426 1448.19 116.365 1451.13 118.243C1454.07 119.95 1455.54 122.597 1455.54 126.182C1455.54 129.426 1454.5 132.243 1452.42 134.633C1450.52 136.852 1447.58 138.56 1443.6 139.755C1439.8 140.95 1435.04 141.547 1429.34 141.547C1421.9 141.547 1414.03 140.523 1405.73 138.474C1397.6 136.255 1389.99 132.926 1382.9 128.487L1355.14 170.485C1355.47 170.698 1355.8 170.91 1356.13 171.119C1357.45 171.96 1358.79 172.771 1360.15 173.552C1368.52 178.345 1377.65 182.017 1387.57 184.57C1399.68 187.643 1412.21 189.18 1425.19 189.18C1442.65 189.18 1458.3 186.277 1472.14 180.473Z" fill="#F2F2F2"/>
<path d="M586.119 122.999L594.799 79.5994H606.703L618.297 107.933H611.973L634.293 79.5994H646.755L638.199 122.999H624.869L629.395 99.6874L631.503 99.5634L616.499 119.093H610.051L601.619 99.5014L604.099 99.6874L599.449 122.999H586.119Z" fill="#F28627"/>
<path d="M640.561 122.999L668.213 79.5994H682.597L692.889 122.999H678.319L671.313 86.3574H677.017L655.999 122.999H640.561ZM653.333 115.435L659.161 104.895H679.125L680.737 115.435H653.333Z" fill="#F28627"/>
<path d="M702.469 122.999L708.855 90.9454H696.145L698.439 79.5994H738.491L736.197 90.9454H723.487L717.101 122.999H702.469Z" fill="#F28627"/>
<path d="M757.682 123.991C753.218 123.991 749.312 123.185 745.964 121.573C742.616 119.92 740.012 117.647 738.152 114.753C736.333 111.819 735.424 108.429 735.424 104.585C735.424 100.783 736.085 97.2901 737.408 94.1074C738.772 90.9248 740.673 88.1761 743.112 85.8614C745.551 83.5468 748.444 81.7694 751.792 80.5294C755.14 79.2481 758.819 78.6074 762.828 78.6074C767.003 78.6074 770.702 79.3514 773.926 80.8394C777.15 82.3274 779.547 84.4768 781.118 87.2874L770.578 95.5334C769.669 93.9214 768.491 92.6814 767.044 91.8134C765.597 90.9041 763.882 90.4494 761.898 90.4494C760.162 90.4494 758.571 90.7801 757.124 91.4414C755.719 92.0614 754.499 92.9708 753.466 94.1694C752.433 95.3268 751.627 96.7114 751.048 98.3234C750.469 99.9354 750.18 101.713 750.18 103.655C750.18 105.35 750.552 106.838 751.296 108.119C752.04 109.401 753.073 110.393 754.396 111.095C755.76 111.798 757.331 112.149 759.108 112.149C760.803 112.149 762.456 111.757 764.068 110.971C765.721 110.186 767.292 108.905 768.78 107.127L777.398 115.373C774.753 118.597 771.797 120.85 768.532 122.131C765.308 123.371 761.691 123.991 757.682 123.991Z" fill="#F28627"/>
<path d="M815.971 79.5994H830.603L821.923 122.999H807.291L815.971 79.5994ZM793.775 122.999H779.143L787.823 79.5994H802.455L793.775 122.999ZM811.445 107.003H796.007L798.425 94.9754H813.863L811.445 107.003Z" fill="#F28627"/>
<path d="M828.973 122.999L837.653 79.5994H852.285L843.605 122.999H828.973Z" fill="#F28627"/>
<path d="M850.648 122.999L859.328 79.5994H871.356L887.662 106.011H882.578L887.848 79.5994H902.108L893.428 122.999H881.4L865.094 96.5874H870.178L864.908 122.999H850.648Z" fill="#F28627"/>
<path d="M925.155 123.991C920.691 123.991 916.785 123.185 913.437 121.573C910.089 119.92 907.485 117.647 905.625 114.753C903.806 111.819 902.897 108.429 902.897 104.585C902.897 100.783 903.558 97.2901 904.881 94.1074C906.245 90.9248 908.167 88.1761 910.647 85.8614C913.127 83.5468 916.061 81.7694 919.451 80.5294C922.881 79.2481 926.663 78.6074 930.797 78.6074C935.343 78.6074 939.249 79.3308 942.515 80.7774C945.821 82.1828 948.487 84.2908 950.513 87.1014L940.035 95.2234C938.629 93.4048 937.141 92.1648 935.571 91.5034C934 90.8008 932.181 90.4494 930.115 90.4494C928.213 90.4494 926.498 90.7801 924.969 91.4414C923.439 92.0614 922.117 92.9708 921.001 94.1694C919.926 95.3268 919.099 96.7114 918.521 98.3234C917.942 99.9354 917.653 101.713 917.653 103.655C917.653 105.35 918.025 106.838 918.769 108.119C919.554 109.401 920.649 110.393 922.055 111.095C923.501 111.798 925.217 112.149 927.201 112.149C928.854 112.149 930.507 111.881 932.161 111.343C933.814 110.765 935.509 109.793 937.245 108.429L942.763 118.845C940.489 120.499 937.844 121.78 934.827 122.689C931.809 123.557 928.585 123.991 925.155 123.991ZM930.487 116.613L933.773 100.121H946.483L942.763 118.845L930.487 116.613Z" fill="#F28627"/>
<path d="M22.4172 123.991C17.9119 123.991 14.0059 123.165 10.6992 121.511C7.43389 119.858 4.89189 117.585 3.07323 114.691C1.29589 111.757 0.407227 108.388 0.407227 104.585C0.407227 100.741 1.06856 97.2488 2.39123 94.1074C3.75523 90.9248 5.65656 88.1761 8.09523 85.8614C10.5339 83.5468 13.4272 81.7694 16.7752 80.5294C20.1232 79.2481 23.7812 78.6074 27.7492 78.6074C32.2546 78.6074 36.1399 79.4341 39.4052 81.0874C42.7119 82.7408 45.2539 85.0348 47.0312 87.9694C48.8499 90.8628 49.7592 94.2108 49.7592 98.0134C49.7592 101.857 49.0772 105.371 47.7132 108.553C46.3906 111.695 44.5099 114.423 42.0712 116.737C39.6326 119.052 36.7392 120.85 33.3912 122.131C30.0432 123.371 26.3852 123.991 22.4172 123.991ZM23.6572 112.149C25.4759 112.149 27.0672 111.798 28.4312 111.095C29.8366 110.393 31.0352 109.421 32.0272 108.181C33.0192 106.941 33.7632 105.536 34.2592 103.965C34.7552 102.353 35.0032 100.659 35.0032 98.8814C35.0032 97.1868 34.6519 95.7194 33.9492 94.4794C33.2879 93.1981 32.3166 92.2061 31.0352 91.5034C29.7952 90.8008 28.2866 90.4494 26.5092 90.4494C24.7319 90.4494 23.1406 90.8008 21.7352 91.5034C20.3299 92.2061 19.1312 93.1774 18.1392 94.4174C17.1472 95.6574 16.4032 97.0834 15.9072 98.6954C15.4112 100.266 15.1632 101.94 15.1632 103.717C15.1632 105.371 15.4939 106.838 16.1552 108.119C16.8579 109.401 17.8292 110.393 19.0692 111.095C20.3506 111.798 21.8799 112.149 23.6572 112.149Z" fill="#D93B3B"/>
<path d="M69.1439 98.0754H88.2399L86.0079 109.111H66.9739L69.1439 98.0754ZM65.1759 122.999H50.5439L59.2239 79.5994H94.5019L92.2699 90.6354H71.6239L65.1759 122.999Z" fill="#D93B3B"/>
<path d="M109.044 98.0754H128.14L125.908 109.111H106.874L109.044 98.0754ZM105.076 122.999H90.4443L99.1243 79.5994H134.402L132.17 90.6354H111.524L105.076 122.999Z" fill="#D93B3B"/>
<path d="M130.345 122.999L139.025 79.5994H158.493C164.238 79.5994 168.681 80.8601 171.823 83.3814C174.964 85.8614 176.535 89.3541 176.535 93.8594C176.535 97.4968 175.625 100.679 173.807 103.407C172.029 106.135 169.487 108.264 166.181 109.793C162.915 111.323 159.051 112.087 154.587 112.087H140.575L148.387 105.949L144.977 122.999H130.345ZM156.881 122.999L147.953 107.189H163.019L172.071 122.999H156.881ZM148.015 107.685L142.869 101.051H155.331C157.356 101.051 158.927 100.555 160.043 99.5634C161.159 98.5301 161.717 97.1041 161.717 95.2854C161.717 93.7148 161.221 92.5988 160.229 91.9374C159.278 91.2348 157.955 90.8834 156.261 90.8834H144.915L152.727 84.0634L148.015 107.685Z" fill="#D93B3B"/>
<path d="M195.39 95.7194H214.734L212.626 106.259H193.282L195.39 95.7194ZM193.096 111.963H214.858L212.626 122.999H176.542L185.222 79.5994H220.5L218.268 90.6354H197.374L193.096 111.963Z" fill="#D93B3B"/>
<path d="M1285.06 95.7196H1304.41L1302.3 106.26H1282.96L1285.06 95.7196ZM1282.77 111.964H1304.53L1302.3 123H1266.22L1274.9 79.5996H1310.17L1307.94 90.6356H1287.05L1282.77 111.964Z" fill="#37BAD4"/>
<path d="M1307.93 123L1316.61 79.5996H1328.64L1344.95 106.012H1339.86L1345.13 79.5996H1359.39L1350.71 123H1338.68L1322.38 96.5876H1327.46L1322.19 123H1307.93Z" fill="#37BAD4"/>
<path d="M1367.19 123L1373.57 90.9456H1360.86L1363.16 79.5996H1403.21L1400.91 90.9456H1388.2L1381.82 123H1367.19Z" fill="#37BAD4"/>
<path d="M1398.33 123L1407.01 79.5996H1426.48C1432.22 79.5996 1436.67 80.8603 1439.81 83.3816C1442.95 85.8616 1444.52 89.3543 1444.52 93.8596C1444.52 97.4969 1443.61 100.68 1441.79 103.408C1440.01 106.136 1437.47 108.264 1434.17 109.794C1430.9 111.323 1427.04 112.088 1422.57 112.088H1408.56L1416.37 105.95L1412.96 123H1398.33ZM1424.87 123L1415.94 107.19H1431L1440.06 123H1424.87ZM1416 107.686L1410.85 101.052H1423.32C1425.34 101.052 1426.91 100.556 1428.03 99.5636C1429.14 98.5303 1429.7 97.1043 1429.7 95.2856C1429.7 93.7149 1429.21 92.5989 1428.21 91.9376C1427.26 91.2349 1425.94 90.8836 1424.25 90.8836H1412.9L1420.71 84.0636L1416 107.686Z" fill="#37BAD4"/>
<path d="M1463.37 95.7196H1482.72L1480.61 106.26H1461.27L1463.37 95.7196ZM1461.08 111.964H1482.84L1480.61 123H1444.53L1453.21 79.5996H1488.48L1486.25 90.6356H1465.36L1461.08 111.964Z" fill="#37BAD4"/>
<path d="M1495.67 123L1502.05 90.9456H1489.34L1491.64 79.5996H1531.69L1529.4 90.9456H1516.69L1510.3 123H1495.67Z" fill="#37BAD4"/>
<path d="M1526.81 123L1535.49 79.5996H1550.12L1541.44 123H1526.81Z" fill="#37BAD4"/>
<path d="M1567.33 95.7196H1586.68L1584.57 106.26H1565.23L1567.33 95.7196ZM1565.04 111.964H1586.8L1584.57 123H1548.49L1557.17 79.5996H1592.44L1590.21 90.6356H1569.32L1565.04 111.964Z" fill="#37BAD4"/>
<path d="M1590.2 123L1598.88 79.5996H1610.91L1627.22 106.012H1622.13L1627.4 79.5996H1641.66L1632.98 123H1620.95L1604.65 96.5876H1609.73L1604.46 123H1590.2Z" fill="#37BAD4"/>
<path d="M1016 99H1208" stroke="#EAEAEA" stroke-dasharray="10 10"/>
<path d="M265 99H457" stroke="#EAEAEA" stroke-dasharray="10 10"/>
</svg>
