<svg width="1692" height="223" viewBox="0 0 1692 223" fill="none" xmlns="http://www.w3.org/2000/svg">
<mask id="mask0_663_1262" style="mask-type:alpha" maskUnits="userSpaceOnUse" x="0" y="137" width="1692" height="86">
<path d="M0 137H1692V223H0V137Z" fill="white"/>
</mask>
<g mask="url(#mask0_663_1262)">
<path fill-rule="evenodd" clip-rule="evenodd" d="M82.7202 205L109.549 70.5532H78.5928L90.2065 13H193.593L155.279 205H82.7202ZM116.673 64.6995L89.8443 199.146H150.491L186.469 18.8537H94.9839L85.7327 64.6995H116.673Z" fill="#D7D7D7"/>
<path fill-rule="evenodd" clip-rule="evenodd" d="M699.593 205L708.822 158.762L785.419 99.8255C790.757 95.6458 794.669 92.1848 797.276 89.4188L797.333 89.3584L797.392 89.2996C800.16 86.5254 801.765 84.2116 802.567 82.3752C803.468 80.3113 803.869 78.3709 803.869 76.5132C803.869 74.3644 803.149 72.9085 801.511 71.6321L801.447 71.5823L801.385 71.5307C799.818 70.238 797.345 69.2729 793.32 69.2729C789.229 69.2729 785.166 70.4466 781.049 73.0074L781 73.0376C777.018 75.4603 773.221 79.0534 769.668 84.0075L766.506 88.4149L716.975 57.752L719.794 52.8595C727.383 39.6923 738.543 29.3126 753.038 21.685C767.766 13.8536 784.305 10 802.521 10C816.452 10 829.084 12.3265 840.309 17.1176C851.621 21.8731 860.749 28.4884 867.424 37.0876L862.839 40.6608C856.875 32.9781 848.611 26.9174 838.047 22.4785C827.654 18.0396 815.812 15.8202 802.521 15.8202C785.142 15.8202 769.551 19.4908 755.75 26.832C744.016 33.0047 734.744 41.0119 727.934 50.8535C727.63 51.293 727.331 51.7361 727.036 52.1829C726.265 53.3535 725.528 54.5492 724.825 55.7701L764.951 80.6107C768.87 75.1474 773.215 70.9647 777.986 68.0623C782.927 64.9893 788.038 63.4527 793.32 63.4527C798.262 63.4527 802.181 64.6478 805.077 67.038C808.144 69.4281 809.678 72.5866 809.678 76.5132C809.678 79.2449 809.081 81.9765 807.889 84.7081C806.696 87.4397 804.566 90.342 801.499 93.4151C798.602 96.4882 794.428 100.159 788.976 104.427L714.09 162.047L706.678 199.18H850.06L859.516 152.316H801.499L829.102 131.316C839.836 123.121 848.271 115.609 854.405 108.78C860.709 101.781 865.139 94.9516 867.695 88.2933C870.421 81.4643 871.784 74.3792 871.784 67.038C871.784 57.1359 868.802 48.3435 862.839 40.6608L867.424 37.0876C874.195 45.8109 877.593 55.866 877.593 67.038C877.593 75.1083 876.093 82.9151 873.102 90.4195C870.222 97.9064 865.345 105.32 858.721 112.675C852.261 119.867 843.523 127.624 832.622 135.946L832.615 135.952L818.755 146.495H866.617L854.811 205H699.593Z" fill="#D7D7D7"/>
<path fill-rule="evenodd" clip-rule="evenodd" d="M1413.69 200.207L1413.67 200.202C1401.15 196.978 1389.74 192.032 1379.48 185.341L1374.59 182.151L1408.73 130.495L1413.65 133.572C1420.23 137.689 1427.28 140.778 1434.82 142.845C1442.7 144.784 1450.06 145.727 1456.93 145.727C1462.27 145.727 1466.37 145.162 1469.41 144.208L1469.48 144.186C1472.8 143.189 1474.59 141.954 1475.52 140.873L1475.54 140.845C1476.67 139.544 1477.23 138.083 1477.23 136.182C1477.23 134.496 1476.73 133.841 1475.73 133.26L1475.62 133.197L1475.52 133.13C1474.02 132.173 1470.83 131.246 1464.97 131.246H1432.61L1441.95 85.1941L1449.07 79.117L1447.8 78.3757H1449.94L1463.02 67.2242H1407.44L1419.16 10H1566.59L1557.26 56.0523L1521.62 86.4428C1530.07 90.6074 1536.9 96.2314 1541.92 103.386C1547.87 111.638 1550.77 121.289 1550.77 132.085C1550.77 146.211 1546.25 158.992 1537.33 170.241C1528.65 181.222 1516.8 189.713 1502.03 195.835C1487.36 201.987 1470.91 205 1452.78 205C1439.33 205 1426.3 203.406 1413.69 200.207ZM1499.73 190.473C1513.74 184.668 1524.72 176.729 1532.68 166.657C1540.81 156.413 1544.87 144.889 1544.87 132.085C1544.87 122.353 1542.28 113.902 1537.09 106.732C1532.29 99.8689 1525.51 94.4918 1516.75 90.6004C1516.36 90.4259 1515.96 90.2544 1515.56 90.086C1513.94 89.3941 1512.27 88.7632 1510.55 88.1932L1551.88 52.9531L1559.4 15.8202H1423.98L1414.64 61.404H1478.86L1447.33 88.2933L1439.81 125.426H1464.97C1471.2 125.426 1475.78 126.365 1478.72 128.243C1481.66 129.95 1483.13 132.597 1483.13 136.182C1483.13 139.426 1482.09 142.243 1480.02 144.633C1478.11 146.852 1475.17 148.56 1471.2 149.755C1467.39 150.95 1462.64 151.547 1456.93 151.547C1449.49 151.547 1441.62 150.523 1433.32 148.474C1425.19 146.255 1417.58 142.926 1410.49 138.487L1382.73 180.485C1383.06 180.698 1383.39 180.91 1383.72 181.119C1385.04 181.96 1386.38 182.771 1387.75 183.552C1396.11 188.345 1405.25 192.017 1415.16 194.57C1427.27 197.643 1439.81 199.18 1452.78 199.18C1470.25 199.18 1485.9 196.277 1499.73 190.473Z" fill="#D7D7D7"/>
</g>
<mask id="mask1_663_1262" style="mask-type:alpha" maskUnits="userSpaceOnUse" x="0" y="0" width="1692" height="86">
<path d="M0 0H1692V86H0V0Z" fill="white"/>
</mask>
<g mask="url(#mask1_663_1262)">
<path fill-rule="evenodd" clip-rule="evenodd" d="M82.7202 205L109.549 70.5532H78.5928L90.2065 13H193.593L155.279 205H82.7202ZM116.673 64.6995L89.8443 199.146H150.491L186.469 18.8537H94.9839L85.7327 64.6995H116.673Z" fill="#D7D7D7"/>
<path fill-rule="evenodd" clip-rule="evenodd" d="M699.593 205L708.822 158.762L785.419 99.8255C790.757 95.6458 794.669 92.1848 797.276 89.4188L797.333 89.3584L797.392 89.2996C800.16 86.5254 801.765 84.2116 802.567 82.3752C803.468 80.3113 803.869 78.3709 803.869 76.5132C803.869 74.3644 803.149 72.9085 801.511 71.6321L801.447 71.5823L801.385 71.5307C799.818 70.238 797.345 69.2729 793.32 69.2729C789.229 69.2729 785.166 70.4466 781.049 73.0074L781 73.0376C777.018 75.4603 773.221 79.0534 769.668 84.0075L766.506 88.4149L716.975 57.752L719.794 52.8595C727.383 39.6923 738.543 29.3126 753.038 21.685C767.766 13.8536 784.305 10 802.521 10C816.452 10 829.084 12.3265 840.309 17.1176C851.621 21.8731 860.749 28.4884 867.424 37.0876L862.839 40.6608C856.875 32.9781 848.611 26.9174 838.047 22.4785C827.654 18.0396 815.812 15.8202 802.521 15.8202C785.142 15.8202 769.551 19.4908 755.75 26.832C744.016 33.0047 734.744 41.0119 727.934 50.8535C727.63 51.293 727.331 51.7361 727.036 52.1829C726.265 53.3535 725.528 54.5492 724.825 55.7701L764.951 80.6107C768.87 75.1474 773.215 70.9647 777.986 68.0623C782.927 64.9893 788.038 63.4527 793.32 63.4527C798.262 63.4527 802.181 64.6478 805.077 67.038C808.144 69.4281 809.678 72.5866 809.678 76.5132C809.678 79.2449 809.081 81.9765 807.889 84.7081C806.696 87.4397 804.566 90.342 801.499 93.4151C798.602 96.4882 794.428 100.159 788.976 104.427L714.09 162.047L706.678 199.18H850.06L859.516 152.316H801.499L829.102 131.316C839.836 123.121 848.271 115.609 854.405 108.78C860.709 101.781 865.139 94.9516 867.695 88.2933C870.421 81.4643 871.784 74.3792 871.784 67.038C871.784 57.1359 868.802 48.3435 862.839 40.6608L867.424 37.0876C874.195 45.8109 877.593 55.866 877.593 67.038C877.593 75.1083 876.093 82.9151 873.102 90.4195C870.222 97.9064 865.345 105.32 858.721 112.675C852.261 119.867 843.523 127.624 832.622 135.946L832.615 135.952L818.755 146.495H866.617L854.811 205H699.593Z" fill="#D7D7D7"/>
<path fill-rule="evenodd" clip-rule="evenodd" d="M1413.69 200.207L1413.67 200.202C1401.15 196.978 1389.74 192.032 1379.48 185.341L1374.59 182.151L1408.73 130.495L1413.65 133.572C1420.23 137.689 1427.28 140.778 1434.82 142.845C1442.7 144.784 1450.06 145.727 1456.93 145.727C1462.27 145.727 1466.37 145.162 1469.41 144.208L1469.48 144.186C1472.8 143.189 1474.59 141.954 1475.52 140.873L1475.54 140.845C1476.67 139.544 1477.23 138.083 1477.23 136.182C1477.23 134.496 1476.73 133.841 1475.73 133.26L1475.62 133.197L1475.52 133.13C1474.02 132.173 1470.83 131.246 1464.97 131.246H1432.61L1441.95 85.1941L1449.07 79.117L1447.8 78.3757H1449.94L1463.02 67.2242H1407.44L1419.16 10H1566.59L1557.26 56.0523L1521.62 86.4428C1530.07 90.6074 1536.9 96.2314 1541.92 103.386C1547.87 111.638 1550.77 121.289 1550.77 132.085C1550.77 146.211 1546.25 158.992 1537.33 170.241C1528.65 181.222 1516.8 189.713 1502.03 195.835C1487.36 201.987 1470.91 205 1452.78 205C1439.33 205 1426.3 203.406 1413.69 200.207ZM1499.73 190.473C1513.74 184.668 1524.72 176.729 1532.68 166.657C1540.81 156.413 1544.87 144.889 1544.87 132.085C1544.87 122.353 1542.28 113.902 1537.09 106.732C1532.29 99.8689 1525.51 94.4918 1516.75 90.6004C1516.36 90.4259 1515.96 90.2544 1515.56 90.086C1513.94 89.3941 1512.27 88.7632 1510.55 88.1932L1551.88 52.9531L1559.4 15.8202H1423.98L1414.64 61.404H1478.86L1447.33 88.2933L1439.81 125.426H1464.97C1471.2 125.426 1475.78 126.365 1478.72 128.243C1481.66 129.95 1483.13 132.597 1483.13 136.182C1483.13 139.426 1482.09 142.243 1480.02 144.633C1478.11 146.852 1475.17 148.56 1471.2 149.755C1467.39 150.95 1462.64 151.547 1456.93 151.547C1449.49 151.547 1441.62 150.523 1433.32 148.474C1425.19 146.255 1417.58 142.926 1410.49 138.487L1382.73 180.485C1383.06 180.698 1383.39 180.91 1383.72 181.119C1385.04 181.96 1386.38 182.771 1387.75 183.552C1396.11 188.345 1405.25 192.017 1415.16 194.57C1427.27 197.643 1439.81 199.18 1452.78 199.18C1470.25 199.18 1485.9 196.277 1499.73 190.473Z" fill="#D7D7D7"/>
</g>
<path d="M613.712 132.999L622.392 89.5994H634.296L645.89 117.933H639.566L661.886 89.5994H674.348L665.792 132.999H652.462L656.988 109.687L659.096 109.563L644.092 129.093H637.644L629.212 109.501L631.692 109.687L627.042 132.999H613.712Z" fill="#F28627"/>
<path d="M668.154 132.999L695.806 89.5994H710.19L720.482 132.999H705.912L698.906 96.3574H704.61L683.592 132.999H668.154ZM680.926 125.435L686.754 114.895H706.718L708.33 125.435H680.926Z" fill="#F28627"/>
<path d="M730.062 132.999L736.448 100.945H723.738L726.032 89.5994H766.084L763.79 100.945H751.08L744.694 132.999H730.062Z" fill="#F28627"/>
<path d="M785.275 133.991C780.811 133.991 776.905 133.185 773.557 131.573C770.209 129.92 767.605 127.647 765.745 124.753C763.926 121.819 763.017 118.429 763.017 114.585C763.017 110.783 763.678 107.29 765.001 104.107C766.365 100.925 768.266 98.1761 770.705 95.8614C773.143 93.5468 776.037 91.7694 779.385 90.5294C782.733 89.2481 786.411 88.6074 790.421 88.6074C794.595 88.6074 798.295 89.3514 801.519 90.8394C804.743 92.3274 807.14 94.4768 808.711 97.2874L798.171 105.533C797.261 103.921 796.083 102.681 794.637 101.813C793.19 100.904 791.475 100.449 789.491 100.449C787.755 100.449 786.163 100.78 784.717 101.441C783.311 102.061 782.092 102.971 781.059 104.169C780.025 105.327 779.219 106.711 778.641 108.323C778.062 109.935 777.773 111.713 777.773 113.655C777.773 115.35 778.145 116.838 778.889 118.119C779.633 119.401 780.666 120.393 781.989 121.095C783.353 121.798 784.923 122.149 786.701 122.149C788.395 122.149 790.049 121.757 791.661 120.971C793.314 120.186 794.885 118.905 796.373 117.127L804.991 125.373C802.345 128.597 799.39 130.85 796.125 132.131C792.901 133.371 789.284 133.991 785.275 133.991Z" fill="#F28627"/>
<path d="M843.563 89.5994H858.195L849.515 132.999H834.883L843.563 89.5994ZM821.367 132.999H806.735L815.415 89.5994H830.047L821.367 132.999ZM839.037 117.003H823.599L826.017 104.975H841.455L839.037 117.003Z" fill="#F28627"/>
<path d="M856.565 132.999L865.245 89.5994H879.877L871.197 132.999H856.565Z" fill="#F28627"/>
<path d="M878.241 132.999L886.921 89.5994H898.949L915.255 116.011H910.171L915.441 89.5994H929.701L921.021 132.999H908.993L892.687 106.587H897.771L892.501 132.999H878.241Z" fill="#F28627"/>
<path d="M952.747 133.991C948.283 133.991 944.377 133.185 941.029 131.573C937.681 129.92 935.077 127.647 933.217 124.753C931.399 121.819 930.489 118.429 930.489 114.585C930.489 110.783 931.151 107.29 932.473 104.107C933.837 100.925 935.759 98.1761 938.239 95.8614C940.719 93.5468 943.654 91.7694 947.043 90.5294C950.474 89.2481 954.256 88.6074 958.389 88.6074C962.936 88.6074 966.842 89.3308 970.107 90.7774C973.414 92.1828 976.08 94.2908 978.105 97.1014L967.627 105.223C966.222 103.405 964.734 102.165 963.163 101.503C961.593 100.801 959.774 100.449 957.707 100.449C955.806 100.449 954.091 100.78 952.561 101.441C951.032 102.061 949.709 102.971 948.593 104.169C947.519 105.327 946.692 106.711 946.113 108.323C945.535 109.935 945.245 111.713 945.245 113.655C945.245 115.35 945.617 116.838 946.361 118.119C947.147 119.401 948.242 120.393 949.647 121.095C951.094 121.798 952.809 122.149 954.793 122.149C956.447 122.149 958.1 121.881 959.753 121.343C961.407 120.765 963.101 119.793 964.837 118.429L970.355 128.845C968.082 130.499 965.437 131.78 962.419 132.689C959.402 133.557 956.178 133.991 952.747 133.991ZM958.079 126.613L961.365 110.121H974.075L970.355 128.845L958.079 126.613Z" fill="#F28627"/>
<path d="M50.01 133.991C45.5047 133.991 41.5987 133.165 38.292 131.511C35.0267 129.858 32.4847 127.585 30.666 124.691C28.8887 121.757 28 118.388 28 114.585C28 110.741 28.6613 107.249 29.984 104.107C31.348 100.925 33.2493 98.1761 35.688 95.8614C38.1267 93.5468 41.02 91.7694 44.368 90.5294C47.716 89.2481 51.374 88.6074 55.342 88.6074C59.8473 88.6074 63.7327 89.4341 66.998 91.0874C70.3047 92.7408 72.8467 95.0348 74.624 97.9694C76.4427 100.863 77.352 104.211 77.352 108.013C77.352 111.857 76.67 115.371 75.306 118.553C73.9833 121.695 72.1027 124.423 69.664 126.737C67.2253 129.052 64.332 130.85 60.984 132.131C57.636 133.371 53.978 133.991 50.01 133.991ZM51.25 122.149C53.0687 122.149 54.66 121.798 56.024 121.095C57.4293 120.393 58.628 119.421 59.62 118.181C60.612 116.941 61.356 115.536 61.852 113.965C62.348 112.353 62.596 110.659 62.596 108.881C62.596 107.187 62.2447 105.719 61.542 104.479C60.8807 103.198 59.9093 102.206 58.628 101.503C57.388 100.801 55.8793 100.449 54.102 100.449C52.3247 100.449 50.7333 100.801 49.328 101.503C47.9227 102.206 46.724 103.177 45.732 104.417C44.74 105.657 43.996 107.083 43.5 108.695C43.004 110.266 42.756 111.94 42.756 113.717C42.756 115.371 43.0867 116.838 43.748 118.119C44.4507 119.401 45.422 120.393 46.662 121.095C47.9433 121.798 49.4727 122.149 51.25 122.149Z" fill="#D93B3B"/>
<path d="M96.7367 108.075H115.833L113.601 119.111H94.5667L96.7367 108.075ZM92.7687 132.999H78.1367L86.8167 89.5994H122.095L119.863 100.635H99.2167L92.7687 132.999Z" fill="#D93B3B"/>
<path d="M136.637 108.075H155.733L153.501 119.111H134.467L136.637 108.075ZM132.669 132.999H118.037L126.717 89.5994H161.995L159.763 100.635H139.117L132.669 132.999Z" fill="#D93B3B"/>
<path d="M157.937 132.999L166.617 89.5994H186.085C191.831 89.5994 196.274 90.8601 199.415 93.3814C202.557 95.8614 204.127 99.3541 204.127 103.859C204.127 107.497 203.218 110.679 201.399 113.407C199.622 116.135 197.08 118.264 193.773 119.793C190.508 121.323 186.643 122.087 182.179 122.087H168.167L175.979 115.949L172.569 132.999H157.937ZM184.473 132.999L175.545 117.189H190.611L199.663 132.999H184.473ZM175.607 117.685L170.461 111.051H182.923C184.949 111.051 186.519 110.555 187.635 109.563C188.751 108.53 189.309 107.104 189.309 105.285C189.309 103.715 188.813 102.599 187.821 101.937C186.871 101.235 185.548 100.883 183.853 100.883H172.507L180.319 94.0634L175.607 117.685Z" fill="#D93B3B"/>
<path d="M222.983 105.719H242.327L240.219 116.259H220.875L222.983 105.719ZM220.689 121.963H242.451L240.219 132.999H204.135L212.815 89.5994H248.093L245.861 100.635H224.967L220.689 121.963Z" fill="#D93B3B"/>
<path d="M1312.66 105.72H1332L1329.89 116.26H1310.55L1312.66 105.72ZM1310.36 121.964H1332.12L1329.89 133H1293.81L1302.49 89.5996H1337.77L1335.53 100.636H1314.64L1310.36 121.964Z" fill="#37BAD4"/>
<path d="M1335.53 133L1344.21 89.5996H1356.23L1372.54 116.012H1367.46L1372.73 89.5996H1386.99L1378.31 133H1366.28L1349.97 106.588H1355.06L1349.79 133H1335.53Z" fill="#37BAD4"/>
<path d="M1394.78 133L1401.17 100.946H1388.46L1390.75 89.5996H1430.8L1428.51 100.946H1415.8L1409.41 133H1394.78Z" fill="#37BAD4"/>
<path d="M1425.92 133L1434.6 89.5996H1454.07C1459.82 89.5996 1464.26 90.8603 1467.4 93.3816C1470.54 95.8616 1472.11 99.3543 1472.11 103.86C1472.11 107.497 1471.2 110.68 1469.38 113.408C1467.61 116.136 1465.06 118.264 1461.76 119.794C1458.49 121.323 1454.63 122.088 1450.16 122.088H1436.15L1443.96 115.95L1440.55 133H1425.92ZM1452.46 133L1443.53 117.19H1458.6L1467.65 133H1452.46ZM1443.59 117.686L1438.45 111.052H1450.91C1452.93 111.052 1454.5 110.556 1455.62 109.564C1456.74 108.53 1457.29 107.104 1457.29 105.286C1457.29 103.715 1456.8 102.599 1455.81 101.938C1454.86 101.235 1453.53 100.884 1451.84 100.884H1440.49L1448.3 94.0636L1443.59 117.686Z" fill="#37BAD4"/>
<path d="M1490.97 105.72H1510.31L1508.2 116.26H1488.86L1490.97 105.72ZM1488.67 121.964H1510.44L1508.2 133H1472.12L1480.8 89.5996H1516.08L1513.85 100.636H1492.95L1488.67 121.964Z" fill="#37BAD4"/>
<path d="M1523.26 133L1529.65 100.946H1516.94L1519.23 89.5996H1559.28L1556.99 100.946H1544.28L1537.89 133H1523.26Z" fill="#37BAD4"/>
<path d="M1554.4 133L1563.08 89.5996H1577.71L1569.03 133H1554.4Z" fill="#37BAD4"/>
<path d="M1594.93 105.72H1614.27L1612.16 116.26H1592.82L1594.93 105.72ZM1592.63 121.964H1614.39L1612.16 133H1576.08L1584.76 89.5996H1620.04L1617.8 100.636H1596.91L1592.63 121.964Z" fill="#37BAD4"/>
<path d="M1617.79 133L1626.47 89.5996H1638.5L1654.81 116.012H1649.72L1654.99 89.5996H1669.25L1660.57 133H1648.55L1632.24 106.588H1637.32L1632.05 133H1617.79Z" fill="#37BAD4"/>
<path d="M1043.59 109H1235.59" stroke="#EAEAEA" stroke-dasharray="10 10"/>
<path d="M292.593 109H484.593" stroke="#EAEAEA" stroke-dasharray="10 10"/>
</svg>
