<svg width="864" height="115" viewBox="0 0 864 115" fill="none" xmlns="http://www.w3.org/2000/svg">
<path d="M46.5791 108.385C44.2964 108.385 42.3231 107.979 40.6591 107.169C39.0164 106.337 37.7471 105.195 36.8511 103.745C35.9551 102.273 35.5071 100.577 35.5071 98.6568C35.5071 96.7581 35.8377 94.9875 36.4991 93.3448C37.1817 91.7021 38.1311 90.2835 39.3471 89.0888C40.5844 87.8728 42.0457 86.9235 43.7311 86.2408C45.4377 85.5581 47.3364 85.2168 49.4271 85.2168C51.4324 85.2168 53.2031 85.5581 54.7391 86.2408C56.2751 86.9235 57.4377 87.9048 58.2271 89.1848L54.4831 92.2568C53.9071 91.4035 53.1711 90.7528 52.2751 90.3048C51.3791 89.8568 50.3124 89.6328 49.0751 89.6328C47.8164 89.6328 46.6751 89.8568 45.6511 90.3048C44.6271 90.7315 43.7417 91.3501 42.9951 92.1608C42.2697 92.9501 41.7151 93.8781 41.3311 94.9448C40.9471 96.0115 40.7551 97.1421 40.7551 98.3368C40.7551 99.4675 41.0004 100.459 41.4911 101.313C41.9817 102.145 42.6964 102.795 43.6351 103.265C44.5737 103.734 45.7044 103.969 47.0271 103.969C48.1791 103.969 49.2564 103.766 50.2591 103.361C51.2617 102.934 52.1684 102.273 52.9791 101.377L56.0511 104.513C54.8777 105.878 53.4804 106.87 51.8591 107.489C50.2591 108.086 48.4991 108.385 46.5791 108.385Z" fill="#0A2E40"/>
<path d="M64.8981 108.001L59.7141 85.6008H65.0581L69.5701 105.473H66.2101L78.8181 85.6008H84.1941L70.0181 108.001H64.8981Z" fill="#0A2E40"/>
<path fill-rule="evenodd" clip-rule="evenodd" d="M0.860255 33.9992L5.45386 11.0312H0.153564L2.14206 1.19922H19.8439L13.2839 33.9992H0.860255ZM6.67366 10.0312L2.08006 32.9992H12.4641L18.6241 2.19922H2.96006L1.37606 10.0312H6.67366Z" fill="#D93B3B"/>
<path fill-rule="evenodd" clip-rule="evenodd" d="M352.592 34.0001L354.181 26.0557L367.368 15.9295C368.287 15.2114 368.96 14.6167 369.409 14.1415L369.419 14.1311L369.429 14.121C369.906 13.6443 370.182 13.2468 370.32 12.9313C370.475 12.5767 370.544 12.2433 370.544 11.9241C370.544 11.5549 370.42 11.3047 370.138 11.0854L370.127 11.0769L370.116 11.068C369.847 10.8459 369.421 10.6801 368.728 10.6801C368.024 10.6801 367.324 10.8817 366.615 11.3217L366.607 11.3269C365.922 11.7432 365.268 12.3605 364.656 13.2117L364.112 13.969L355.585 8.70062L356.07 7.86002C357.377 5.59769 359.298 3.81429 361.793 2.50376C364.329 1.15819 367.176 0.496094 370.312 0.496094C372.71 0.496094 374.885 0.895817 376.817 1.719C378.765 2.53608 380.336 3.67269 381.485 5.15015L380.696 5.76409C379.669 4.44409 378.247 3.40276 376.428 2.64009C374.639 1.87743 372.6 1.49609 370.312 1.49609C367.32 1.49609 364.636 2.12676 362.26 3.38809C360.24 4.44865 358.644 5.82441 357.471 7.51536C357.419 7.59086 357.368 7.667 357.317 7.74376C357.184 7.94489 357.057 8.15034 356.936 8.36009L363.844 12.6281C364.519 11.6894 365.267 10.9708 366.088 10.4721C366.939 9.94409 367.819 9.68009 368.728 9.68009C369.579 9.68009 370.253 9.88543 370.752 10.2961C371.28 10.7068 371.544 11.2494 371.544 11.9241C371.544 12.3934 371.441 12.8628 371.236 13.3321C371.031 13.8014 370.664 14.3001 370.136 14.8281C369.637 15.3561 368.919 15.9868 367.98 16.7201L355.088 26.6201L353.812 33.0001H378.496L380.124 24.9481H370.136L374.888 21.3401C376.736 19.9321 378.188 18.6414 379.244 17.4681C380.329 16.2654 381.092 15.0921 381.532 13.9481C382.001 12.7748 382.236 11.5574 382.236 10.2961C382.236 8.59476 381.723 7.08409 380.696 5.76409L381.485 5.15015C382.651 6.64896 383.236 8.37657 383.236 10.2961C383.236 11.6827 382.978 13.024 382.463 14.3134C381.967 15.5998 381.128 16.8736 379.987 18.1373C378.875 19.373 377.371 20.7057 375.494 22.1355L375.493 22.1365L373.107 23.9481H381.347L379.314 34.0001H352.592Z" fill="#F28627"/>
<path fill-rule="evenodd" clip-rule="evenodd" d="M714.315 33.8797L714.312 33.8788C712.188 33.3249 710.253 32.4751 708.513 31.3256L707.683 30.7775L713.474 21.9021L714.308 22.4307C715.423 23.1381 716.619 23.6689 717.899 24.0241C719.235 24.3571 720.483 24.5192 721.648 24.5192C722.554 24.5192 723.25 24.4222 723.765 24.2583L723.777 24.2545C724.34 24.0831 724.644 23.871 724.801 23.6853L724.805 23.6804C724.996 23.4569 725.092 23.2058 725.092 22.8792C725.092 22.5896 725.007 22.4771 724.837 22.3772L724.819 22.3664L724.801 22.3548C724.547 22.1904 724.006 22.0312 723.012 22.0312H717.524L719.107 14.1187L720.316 13.0746L720.1 12.9472H720.463L722.681 11.0312H713.254L715.242 1.19922H740.248L738.665 9.11171L732.621 14.3333C734.053 15.0488 735.212 16.0151 736.062 17.2444C737.073 18.6623 737.564 20.3204 737.564 22.1752C737.564 24.6023 736.798 26.7984 735.284 28.7311C733.813 30.6177 731.802 32.0767 729.297 33.1285C726.809 34.1856 724.019 34.7032 720.944 34.7032C718.663 34.7032 716.453 34.4294 714.315 33.8797ZM728.908 32.2072C731.284 31.2099 733.147 29.8459 734.496 28.1152C735.875 26.3552 736.564 24.3752 736.564 22.1752C736.564 20.5032 736.124 19.0512 735.244 17.8192C734.43 16.6401 733.28 15.7162 731.794 15.0476C731.727 15.0176 731.66 14.9882 731.592 14.9592C731.318 14.8403 731.035 14.7319 730.743 14.634L737.752 8.57922L739.028 2.19922H716.06L714.476 10.0312H725.368L720.02 14.6512L718.744 21.0312H723.012C724.068 21.0312 724.845 21.1926 725.344 21.5152C725.843 21.8086 726.092 22.2632 726.092 22.8792C726.092 23.4366 725.916 23.9206 725.564 24.3312C725.241 24.7126 724.743 25.0059 724.068 25.2112C723.423 25.4166 722.616 25.5192 721.648 25.5192C720.387 25.5192 719.052 25.3432 717.644 24.9912C716.265 24.6099 714.975 24.0379 713.772 23.2752L709.064 30.4912C709.12 30.5278 709.175 30.5642 709.231 30.6001C709.455 30.7446 709.683 30.884 709.914 31.0182C711.333 31.8416 712.883 32.4726 714.564 32.9112C716.617 33.4392 718.744 33.7032 720.944 33.7032C723.907 33.7032 726.561 33.2046 728.908 32.2072Z" fill="#37BAD4"/>
<path fill-rule="evenodd" clip-rule="evenodd" d="M30.5 58C30.5 57.7239 30.7239 57.5 31 57.5H33.4826V58.5H31C30.7239 58.5 30.5 58.2761 30.5 58ZM43.4132 58.5H38.4479V57.5H43.4132V58.5ZM53.3438 58.5H48.3785V57.5H53.3438V58.5ZM63.2743 58.5H58.309V57.5H63.2743V58.5ZM73.2049 58.5H68.2396V57.5H73.2049V58.5ZM83.1354 58.5H78.1701V57.5H83.1354V58.5ZM93.066 58.5H88.1007V57.5H93.066V58.5ZM102.997 58.5H98.0313V57.5H102.997V58.5ZM112.927 58.5H107.962V57.5H112.927V58.5ZM122.858 58.5H117.892V57.5H122.858V58.5ZM132.788 58.5H127.823V57.5H132.788V58.5ZM142.719 58.5H137.753V57.5H142.719V58.5ZM152.649 58.5H147.684V57.5H152.649V58.5ZM162.58 58.5H157.615V57.5H162.58V58.5ZM172.51 58.5H167.545V57.5H172.51V58.5ZM182.441 58.5H177.476V57.5H182.441V58.5ZM192.372 58.5H187.406V57.5H192.372V58.5ZM202.302 58.5H197.337V57.5H202.302V58.5ZM212.233 58.5H207.267V57.5H212.233V58.5ZM222.163 58.5H217.198V57.5H222.163V58.5ZM232.094 58.5H227.128V57.5H232.094V58.5ZM242.024 58.5H237.059V57.5H242.024V58.5ZM251.955 58.5H246.989V57.5H251.955V58.5ZM261.885 58.5H256.92V57.5H261.885V58.5ZM271.816 58.5H266.851V57.5H271.816V58.5ZM281.746 58.5H276.781V57.5H281.746V58.5ZM291.677 58.5H286.712V57.5H291.677V58.5ZM301.607 58.5H296.642V57.5H301.607V58.5ZM311.538 58.5H306.573V57.5H311.538V58.5ZM321.469 58.5H316.503V57.5H321.469V58.5ZM331.399 58.5H326.434V57.5H331.399V58.5ZM341.33 58.5H336.364V57.5H341.33V58.5ZM351.26 58.5H346.295V57.5H351.26V58.5ZM361.191 58.5H356.225V57.5H361.191V58.5ZM371.121 58.5H366.156V57.5H371.121V58.5ZM381.052 58.5H376.087V57.5H381.052V58.5ZM390.982 58.5H386.017V57.5H390.982V58.5ZM400.913 58.5H395.948V57.5H400.913V58.5ZM410.843 58.5H405.878V57.5H410.843V58.5ZM420.774 58.5H415.809V57.5H420.774V58.5ZM430.705 58.5H425.739V57.5H430.705V58.5ZM440.635 58.5H435.67V57.5H440.635V58.5ZM450.566 58.5H445.6V57.5H450.566V58.5ZM460.496 58.5H455.531V57.5H460.496V58.5ZM470.427 58.5H465.461V57.5H470.427V58.5ZM480.357 58.5H475.392V57.5H480.357V58.5ZM490.288 58.5H485.323V57.5H490.288V58.5ZM500.218 58.5H495.253V57.5H500.218V58.5ZM510.149 58.5H505.184V57.5H510.149V58.5ZM520.079 58.5H515.114V57.5H520.079V58.5ZM530.01 58.5H525.045V57.5H530.01V58.5ZM539.94 58.5H534.975V57.5H539.94V58.5ZM549.871 58.5H544.906V57.5H549.871V58.5ZM559.802 58.5H554.836V57.5H559.802V58.5ZM569.732 58.5H564.767V57.5H569.732V58.5ZM579.663 58.5H574.697V57.5H579.663V58.5ZM589.593 58.5H584.628V57.5H589.593V58.5ZM599.524 58.5H594.558V57.5H599.524V58.5ZM609.454 58.5H604.489V57.5H609.454V58.5ZM619.385 58.5H614.42V57.5H619.385V58.5ZM629.315 58.5H624.35V57.5H629.315V58.5ZM639.246 58.5H634.281V57.5H639.246V58.5ZM649.176 58.5H644.211V57.5H649.176V58.5ZM659.107 58.5H654.142V57.5H659.107V58.5ZM669.038 58.5H664.072V57.5H669.038V58.5ZM678.968 58.5H674.003V57.5H678.968V58.5ZM688.899 58.5H683.933V57.5H688.899V58.5ZM698.829 58.5H693.864V57.5H698.829V58.5ZM708.76 58.5H703.794V57.5H708.76V58.5ZM718.69 58.5H713.725V57.5H718.69V58.5ZM728.621 58.5H723.656V57.5H728.621V58.5ZM738.551 58.5H733.586V57.5H738.551V58.5ZM746 58.5H743.517V57.5H746V58.5Z" fill="#D9D9D9"/>
<path d="M43 58C43 62.9706 38.9706 67 34 67C29.0294 67 25 62.9706 25 58C25 53.0294 29.0294 49 34 49C38.9706 49 43 53.0294 43 58Z" fill="#D93B3B"/>
<path d="M399 58C399 62.9706 394.971 67 390 67C385.029 67 381 62.9706 381 58C381 53.0294 385.029 49 390 49C394.971 49 399 53.0294 399 58Z" fill="#F28627"/>
<path d="M754 58C754 62.9706 750.194 67 745.5 67C740.806 67 737 62.9706 737 58C737 53.0294 740.806 49 745.5 49C750.194 49 754 53.0294 754 58Z" fill="#37BAD4"/>
<path d="M342.35 108L346.83 85.6004H351.054L357.422 101.472L355.182 101.44L367.598 85.6004H372.046L367.598 108H362.734L365.71 92.9924H366.702L356.814 105.632H354.51L349.23 92.9604L350.19 93.0564L347.214 108H342.35Z" fill="#0A2E40"/>
<path d="M380.368 108.256C379.046 108.256 377.819 107.958 376.688 107.36C375.558 106.742 374.651 105.856 373.968 104.704C373.286 103.552 372.944 102.166 372.944 100.544C372.944 99.0937 373.179 97.7604 373.648 96.5444C374.139 95.3284 374.822 94.2724 375.696 93.3764C376.571 92.4804 377.584 91.7871 378.736 91.2964C379.888 90.7844 381.126 90.5284 382.448 90.5284C383.878 90.5284 385.104 90.7951 386.128 91.3284C387.152 91.8617 387.91 92.6937 388.4 93.8244C388.912 94.9337 389.094 96.3737 388.944 98.1444C388.838 100.171 388.422 101.952 387.696 103.488C386.971 105.003 385.99 106.176 384.752 107.008C383.536 107.84 382.075 108.256 380.368 108.256ZM381.904 104.128C382.886 104.128 383.75 103.894 384.496 103.424C385.264 102.934 385.862 102.272 386.288 101.44C386.736 100.587 386.96 99.5951 386.96 98.4644C386.96 97.2911 386.608 96.3631 385.904 95.6804C385.222 94.9977 384.262 94.6564 383.024 94.6564C382.064 94.6564 381.2 94.9017 380.432 95.3924C379.664 95.8617 379.056 96.5231 378.608 97.3764C378.182 98.2084 377.968 99.1897 377.968 100.32C377.968 101.494 378.31 102.422 378.992 103.104C379.696 103.787 380.667 104.128 381.904 104.128ZM385.328 108L386 104.576L387.12 99.4564L387.792 94.3364L388.496 90.7844H393.488L390.064 108H385.328Z" fill="#0A2E40"/>
<path d="M401.694 108.256C400.457 108.256 399.401 108.011 398.526 107.52C397.652 107.008 397.022 106.283 396.638 105.344C396.276 104.384 396.222 103.254 396.478 101.952L399.454 86.9764H404.446L401.47 101.92C401.342 102.646 401.417 103.222 401.694 103.648C401.972 104.075 402.484 104.288 403.23 104.288C403.572 104.288 403.913 104.235 404.254 104.128C404.617 104.022 404.948 103.872 405.246 103.68L405.982 107.232C405.364 107.616 404.681 107.883 403.934 108.032C403.188 108.182 402.441 108.256 401.694 108.256ZM395.198 95.0084L395.966 91.1684H407.902L407.134 95.0084H395.198Z" fill="#0A2E40"/>
<path d="M417.149 108.256C415.379 108.256 413.832 107.936 412.509 107.296C411.208 106.656 410.195 105.76 409.469 104.608C408.744 103.456 408.381 102.102 408.381 100.544C408.381 98.6244 408.829 96.9177 409.725 95.4244C410.621 93.9097 411.859 92.7151 413.437 91.8404C415.016 90.9657 416.829 90.5284 418.877 90.5284C420.712 90.5284 422.301 90.9124 423.645 91.6804C424.989 92.4271 425.981 93.4937 426.621 94.8804L422.397 96.9924C422.035 96.1817 421.523 95.5951 420.861 95.2324C420.221 94.8484 419.453 94.6564 418.557 94.6564C417.576 94.6564 416.701 94.9017 415.933 95.3924C415.165 95.8617 414.557 96.5231 414.109 97.3764C413.661 98.2084 413.437 99.1791 413.437 100.288C413.437 101.462 413.779 102.4 414.461 103.104C415.165 103.787 416.157 104.128 417.437 104.128C418.312 104.128 419.112 103.947 419.837 103.584C420.563 103.2 421.171 102.614 421.661 101.824L425.341 104.128C424.531 105.43 423.4 106.443 421.949 107.168C420.52 107.894 418.92 108.256 417.149 108.256Z" fill="#0A2E40"/>
<path d="M440.314 90.5284C441.764 90.5284 443.002 90.8377 444.026 91.4564C445.05 92.0537 445.775 92.9391 446.202 94.1124C446.65 95.2857 446.703 96.7364 446.362 98.4644L444.442 108H439.45L441.306 98.7844C441.562 97.5257 441.455 96.5551 440.986 95.8724C440.538 95.1897 439.706 94.8484 438.49 94.8484C437.231 94.8484 436.175 95.2111 435.322 95.9364C434.49 96.6617 433.914 97.7711 433.594 99.2644L431.866 108H426.874L431.61 84.2564H436.602L434.33 95.6484L433.338 94.1764C434.17 92.9177 435.194 92.0004 436.41 91.4244C437.647 90.8271 438.948 90.5284 440.314 90.5284Z" fill="#0A2E40"/>
<path d="M448.999 108L452.423 90.7844H457.383L453.959 108H448.999ZM455.751 88.3844C454.876 88.3844 454.172 88.1391 453.639 87.6484C453.105 87.1364 452.839 86.5177 452.839 85.7924C452.839 84.9391 453.137 84.2351 453.735 83.6804C454.353 83.1044 455.153 82.8164 456.135 82.8164C457.009 82.8164 457.713 83.0617 458.247 83.5524C458.801 84.0217 459.079 84.6084 459.079 85.3124C459.079 86.2297 458.769 86.9764 458.151 87.5524C457.553 88.1071 456.753 88.3844 455.751 88.3844Z" fill="#0A2E40"/>
<path d="M472.032 90.5284C473.504 90.5284 474.752 90.8377 475.776 91.4564C476.8 92.0537 477.526 92.9391 477.952 94.1124C478.379 95.2857 478.422 96.7364 478.08 98.4644L476.16 108H471.168L473.024 98.7844C473.28 97.5257 473.174 96.5551 472.704 95.8724C472.256 95.1897 471.424 94.8484 470.208 94.8484C468.95 94.8484 467.894 95.2111 467.04 95.9364C466.208 96.6617 465.632 97.7711 465.312 99.2644L463.584 108H458.592L462.016 90.7844H466.752L465.76 95.6484L465.056 94.1764C465.888 92.9177 466.912 92.0004 468.128 91.4244C469.366 90.8271 470.667 90.5284 472.032 90.5284Z" fill="#0A2E40"/>
<path d="M488.108 114.464C486.444 114.464 484.908 114.272 483.5 113.888C482.113 113.504 480.919 112.939 479.916 112.192L482.284 108.576C482.967 109.131 483.841 109.579 484.908 109.92C485.996 110.262 487.137 110.432 488.332 110.432C490.06 110.432 491.351 110.059 492.204 109.312C493.079 108.566 493.665 107.456 493.964 105.984L494.572 102.88L495.724 98.8484L496.492 94.4964L497.196 90.7844H501.964L499.116 105.12C498.455 108.427 497.196 110.806 495.34 112.256C493.505 113.728 491.095 114.464 488.108 114.464ZM488.844 107.168C487.436 107.168 486.156 106.88 485.004 106.304C483.852 105.728 482.935 104.907 482.252 103.84C481.569 102.752 481.228 101.451 481.228 99.9364C481.228 98.6137 481.463 97.3871 481.932 96.2564C482.423 95.1257 483.095 94.1337 483.948 93.2804C484.823 92.4057 485.836 91.7337 486.988 91.2644C488.161 90.7737 489.441 90.5284 490.828 90.5284C492.087 90.5284 493.228 90.7631 494.252 91.2324C495.276 91.7017 496.065 92.4591 496.62 93.5044C497.196 94.5497 497.409 95.9471 497.26 97.6964C497.132 99.5951 496.716 101.259 496.012 102.688C495.308 104.096 494.348 105.195 493.132 105.984C491.937 106.774 490.508 107.168 488.844 107.168ZM490.188 103.072C491.169 103.072 492.033 102.859 492.78 102.432C493.527 102.006 494.113 101.419 494.54 100.672C494.967 99.9044 495.18 99.0297 495.18 98.0484C495.18 97.0031 494.839 96.1817 494.156 95.5844C493.473 94.9657 492.524 94.6564 491.308 94.6564C490.327 94.6564 489.452 94.8697 488.684 95.2964C487.937 95.7231 487.34 96.3204 486.892 97.0884C486.465 97.8351 486.252 98.6991 486.252 99.6804C486.252 100.726 486.604 101.558 487.308 102.176C488.012 102.774 488.972 103.072 490.188 103.072Z" fill="#0A2E40"/>
<path d="M716.962 98.6244H727.746L726.946 102.656H716.162L716.962 98.6244ZM715.49 107.84H727.714L726.85 112H709.506L713.986 89.6004H730.914L730.05 93.7604H718.306L715.49 107.84Z" fill="#0A2E40"/>
<path d="M744.095 94.5284C745.567 94.5284 746.815 94.8377 747.839 95.4564C748.863 96.0537 749.588 96.9391 750.015 98.1124C750.442 99.2857 750.484 100.736 750.143 102.464L748.223 112H743.231L745.087 102.784C745.343 101.526 745.236 100.555 744.767 99.8724C744.319 99.1897 743.487 98.8484 742.271 98.8484C741.012 98.8484 739.956 99.2111 739.103 99.9364C738.271 100.662 737.695 101.771 737.375 103.264L735.647 112H730.655L734.079 94.7844H738.815L737.823 99.6484L737.119 98.1764C737.951 96.9177 738.975 96.0004 740.191 95.4244C741.428 94.8271 742.73 94.5284 744.095 94.5284Z" fill="#0A2E40"/>
<path d="M759.788 112.256C758.551 112.256 757.495 112.011 756.62 111.52C755.745 111.008 755.116 110.283 754.732 109.344C754.369 108.384 754.316 107.254 754.572 105.952L757.548 90.9764H762.54L759.564 105.92C759.436 106.646 759.511 107.222 759.788 107.648C760.065 108.075 760.577 108.288 761.324 108.288C761.665 108.288 762.007 108.235 762.348 108.128C762.711 108.022 763.041 107.872 763.34 107.68L764.076 111.232C763.457 111.616 762.775 111.883 762.028 112.032C761.281 112.182 760.535 112.256 759.788 112.256ZM753.292 99.0084L754.06 95.1684H765.996L765.228 99.0084H753.292Z" fill="#0A2E40"/>
<path d="M766.686 112L770.11 94.7844H774.846L773.854 99.6804L773.406 98.2724C774.174 96.8857 775.177 95.9151 776.414 95.3604C777.651 94.8057 779.134 94.5284 780.862 94.5284L779.966 99.1364C779.753 99.1151 779.55 99.1044 779.358 99.1044C779.187 99.0831 779.006 99.0724 778.814 99.0724C777.342 99.0724 776.137 99.4351 775.198 100.16C774.281 100.886 773.662 102.059 773.342 103.68L771.678 112H766.686Z" fill="#0A2E40"/>
<path d="M789.369 112.256C787.577 112.256 786.02 111.936 784.697 111.296C783.396 110.656 782.383 109.76 781.657 108.608C780.932 107.456 780.569 106.102 780.569 104.544C780.569 102.624 780.996 100.918 781.849 99.4244C782.724 97.9097 783.919 96.7151 785.433 95.8404C786.969 94.9657 788.729 94.5284 790.713 94.5284C792.399 94.5284 793.849 94.8484 795.065 95.4884C796.281 96.1071 797.22 96.9817 797.881 98.1124C798.564 99.2217 798.905 100.555 798.905 102.112C798.905 102.56 798.873 103.008 798.809 103.456C798.767 103.904 798.703 104.331 798.617 104.736H784.377L784.889 101.824H796.281L794.233 102.72C794.404 101.76 794.351 100.96 794.073 100.32C793.796 99.6591 793.348 99.1577 792.729 98.8164C792.111 98.4537 791.364 98.2724 790.489 98.2724C789.401 98.2724 788.473 98.5391 787.705 99.0724C786.959 99.5844 786.393 100.299 786.009 101.216C785.625 102.134 785.433 103.168 785.433 104.32C785.433 105.643 785.796 106.635 786.521 107.296C787.268 107.936 788.388 108.256 789.881 108.256C790.756 108.256 791.599 108.118 792.409 107.84C793.22 107.563 793.913 107.168 794.489 106.656L796.569 109.952C795.567 110.742 794.436 111.328 793.177 111.712C791.94 112.075 790.671 112.256 789.369 112.256Z" fill="#0A2E40"/>
<path d="M807.319 112.256C806.082 112.256 805.026 112.011 804.151 111.52C803.276 111.008 802.647 110.283 802.263 109.344C801.9 108.384 801.847 107.254 802.103 105.952L805.079 90.9764H810.071L807.095 105.92C806.967 106.646 807.042 107.222 807.319 107.648C807.596 108.075 808.108 108.288 808.855 108.288C809.196 108.288 809.538 108.235 809.879 108.128C810.242 108.022 810.572 107.872 810.871 107.68L811.607 111.232C810.988 111.616 810.306 111.883 809.559 112.032C808.812 112.182 808.066 112.256 807.319 112.256ZM800.823 99.0084L801.591 95.1684H813.527L812.759 99.0084H800.823Z" fill="#0A2E40"/>
<path d="M814.217 112L817.641 94.7844H822.601L819.177 112H814.217ZM820.969 92.3844C820.095 92.3844 819.391 92.1391 818.857 91.6484C818.324 91.1364 818.057 90.5177 818.057 89.7924C818.057 88.9391 818.356 88.2351 818.953 87.6804C819.572 87.1044 820.372 86.8164 821.353 86.8164C822.228 86.8164 822.932 87.0617 823.465 87.5524C824.02 88.0217 824.297 88.6084 824.297 89.3124C824.297 90.2297 823.988 90.9764 823.369 91.5524C822.772 92.1071 821.972 92.3844 820.969 92.3844Z" fill="#0A2E40"/>
<path d="M832.963 112.256C831.171 112.256 829.614 111.936 828.291 111.296C826.99 110.656 825.976 109.76 825.251 108.608C824.526 107.456 824.163 106.102 824.163 104.544C824.163 102.624 824.59 100.918 825.443 99.4244C826.318 97.9097 827.512 96.7151 829.027 95.8404C830.563 94.9657 832.323 94.5284 834.307 94.5284C835.992 94.5284 837.443 94.8484 838.659 95.4884C839.875 96.1071 840.814 96.9817 841.475 98.1124C842.158 99.2217 842.499 100.555 842.499 102.112C842.499 102.56 842.467 103.008 842.403 103.456C842.36 103.904 842.296 104.331 842.211 104.736H827.971L828.483 101.824H839.875L837.827 102.72C837.998 101.76 837.944 100.96 837.667 100.32C837.39 99.6591 836.942 99.1577 836.323 98.8164C835.704 98.4537 834.958 98.2724 834.083 98.2724C832.995 98.2724 832.067 98.5391 831.299 99.0724C830.552 99.5844 829.987 100.299 829.603 101.216C829.219 102.134 829.027 103.168 829.027 104.32C829.027 105.643 829.39 106.635 830.115 107.296C830.862 107.936 831.982 108.256 833.475 108.256C834.35 108.256 835.192 108.118 836.003 107.84C836.814 107.563 837.507 107.168 838.083 106.656L840.163 109.952C839.16 110.742 838.03 111.328 836.771 111.712C835.534 112.075 834.264 112.256 832.963 112.256Z" fill="#0A2E40"/>
<path d="M857.345 94.5284C858.817 94.5284 860.065 94.8377 861.089 95.4564C862.113 96.0537 862.838 96.9391 863.265 98.1124C863.692 99.2857 863.734 100.736 863.393 102.464L861.473 112H856.481L858.337 102.784C858.593 101.526 858.486 100.555 858.017 99.8724C857.569 99.1897 856.737 98.8484 855.521 98.8484C854.262 98.8484 853.206 99.2111 852.353 99.9364C851.521 100.662 850.945 101.771 850.625 103.264L848.897 112H843.905L847.329 94.7844H852.065L851.073 99.6484L850.369 98.1764C851.201 96.9177 852.225 96.0004 853.441 95.4244C854.678 94.8271 855.98 94.5284 857.345 94.5284Z" fill="#0A2E40"/>
</svg>
